<svg width="32" height="35" viewBox="0 0 32 35" fill="none" xmlns="http://www.w3.org/2000/svg">
<path id="Light bulb (Traced)" fill-rule="evenodd" clip-rule="evenodd" d="M13.2465 0.141575C9.304 0.965796 6.10956 3.81423 4.82752 7.64873C4.44586 8.79028 4.27717 9.85272 4.27683 11.1165C4.27662 12.2765 4.35176 12.939 4.5934 13.9074C5.30163 16.7459 6.96896 19.001 9.71686 20.837C10.3567 21.2645 10.402 21.3983 10.4289 22.9394L10.4514 24.2234L10.2646 24.4449C9.96014 24.806 9.89322 25.0495 9.89322 25.7962C9.89322 26.3566 9.91949 26.537 10.0339 26.7611L10.1745 27.0369L10.0339 27.3275C9.92045 27.5618 9.89349 27.7497 9.89472 28.298C9.89643 29.0816 10.005 29.4031 10.3786 29.7312L10.6118 29.9359V30.8025C10.6118 31.6575 10.6146 31.6731 10.82 31.9653C11.1553 32.4425 11.4484 32.5681 12.2293 32.5695L12.8888 32.5706L12.9331 32.8661C12.9986 33.303 13.3264 33.9327 13.6661 34.274C13.8305 34.4393 14.1652 34.6703 14.4099 34.7873C14.8111 34.9791 14.9184 35 15.5048 35C16.0912 35 16.1985 34.9791 16.5998 34.7873C16.8444 34.6703 17.1791 34.4393 17.3436 34.274C17.6832 33.9327 18.011 33.303 18.0766 32.8661L18.1208 32.5706L18.7803 32.5695C19.5612 32.5681 19.8543 32.4425 20.1897 31.9653C20.395 31.6731 20.3979 31.6575 20.3979 30.8025V29.9359L20.631 29.7312C21.0057 29.4022 21.1132 29.0822 21.1149 28.2908C21.1161 27.7349 21.0901 27.5522 20.9784 27.333L20.8403 27.0623L20.9784 26.7413C21.0849 26.4936 21.1164 26.2706 21.1164 25.7636C21.1164 25.0515 21.0462 24.802 20.745 24.4449L20.5583 24.2234L20.5807 22.9394C20.609 21.3247 20.6413 21.2446 21.4856 20.6999C24.4115 18.8125 26.3519 15.7101 26.6959 12.3698C26.7403 11.9392 26.7327 11.9019 26.5675 11.7368C26.3535 11.5228 26.0316 11.5049 25.8401 11.6965C25.6902 11.8463 25.6883 11.8536 25.5349 12.8461C25.1164 15.5532 23.4727 18.0755 21.0769 19.6868C20.2391 20.2503 20.035 20.4517 19.7405 21.0052C19.5863 21.295 19.5753 21.393 19.5544 22.6647L19.5322 24.0163H18.438H17.3438L17.3653 21.8435C17.3818 20.1664 17.408 19.6333 17.48 19.5068C17.5314 19.4166 17.8 19.0384 18.0768 18.6663C18.7849 17.715 18.7891 17.6951 18.7923 15.3298L18.7949 13.3748L19.0147 13.2369C19.3617 13.019 19.3557 12.5348 19.0036 12.3528C18.8965 12.2974 18.7712 12.1609 18.725 12.0495C18.5475 11.6209 17.9377 11.6189 17.7607 12.0462L17.6781 12.2457H15.5048H13.3316L13.249 12.0462C13.0719 11.6189 12.4622 11.6209 12.2846 12.0495C12.2385 12.1609 12.1131 12.2974 12.0061 12.3528C11.654 12.5348 11.6479 13.019 11.9949 13.2369L12.2147 13.3748L12.2173 15.3298C12.2205 17.6951 12.2248 17.715 12.9328 18.6663C13.2097 19.0384 13.4783 19.4166 13.5296 19.5068C13.6016 19.6333 13.6278 20.1664 13.6443 21.8435L13.6658 24.0163H12.5717H11.4775L11.4552 22.6647C11.4344 21.3993 11.4226 21.2935 11.2712 21.0052C10.9804 20.4517 10.7897 20.2633 9.94235 19.6927C8.95567 19.0281 7.80392 17.9188 7.19274 17.0445C6.36934 15.8665 5.75028 14.3846 5.47388 12.93C5.30368 12.0343 5.30368 10.2671 5.47388 9.37142C6.30029 5.02189 9.68545 1.73417 13.9982 1.09247C14.3502 1.04005 14.5588 0.970723 14.6654 0.870535C14.8728 0.675772 14.8712 0.341197 14.6621 0.144723C14.4624 -0.0427865 14.132 -0.0435393 13.2465 0.141575ZM16.3379 0.154304C16.1421 0.362754 16.1445 0.683231 16.3431 0.868277C16.4525 0.970107 16.6954 1.04518 17.1814 1.12723C21.4658 1.85072 24.7362 5.07916 25.5284 9.36711C25.6574 10.0655 25.7632 10.2069 26.1359 10.1788C26.3371 10.1636 26.442 10.1105 26.5456 9.97125C26.6828 9.78675 26.6831 9.7747 26.5666 9.11582C26.3302 7.77786 25.7105 6.24631 24.8979 4.99164C23.2962 2.51857 20.6548 0.732504 17.7182 0.136922C16.7961 -0.0501089 16.5268 -0.0466872 16.3379 0.154304ZM19.1495 3.33266C18.797 3.39226 18.6643 3.96355 18.9436 4.21895C19.0283 4.29635 19.2054 4.41371 19.3371 4.47968C20.1607 4.892 21.3524 5.96641 21.9165 6.80514C22.2848 7.35255 22.6366 8.06707 22.8262 8.65286C23.0174 9.24324 23.1831 9.43986 23.4893 9.43986C23.7782 9.43986 23.9906 9.23476 23.9906 8.95575C23.9906 8.44701 23.4253 7.14396 22.8071 6.22783C21.8766 4.84875 19.8184 3.21954 19.1495 3.33266ZM0.959483 6.66519C0.756849 6.86776 0.740083 7.16901 0.920681 7.36288C1.04831 7.49989 2.80645 8.20804 3.01901 8.20804C3.17244 8.20804 3.52884 7.83549 3.52884 7.67508C3.52884 7.38191 3.27283 7.20459 2.33521 6.84832C1.82695 6.6552 1.3473 6.49719 1.26928 6.49719C1.19127 6.49719 1.05187 6.57281 0.959483 6.66519ZM28.6784 6.84223C27.7721 7.18878 27.4808 7.39005 27.4808 7.66967C27.4808 7.83432 27.8347 8.20804 27.9906 8.20804C28.2032 8.20804 29.9613 7.49989 30.0889 7.36288C30.16 7.28658 30.2181 7.13616 30.2181 7.02865C30.2181 6.78988 29.9445 6.49623 29.7251 6.49965C29.6387 6.50095 29.1677 6.65513 28.6784 6.84223ZM0.333516 10.3986C-0.0352073 10.5471 -0.114249 10.9978 0.177281 11.2893C0.300462 11.4125 0.408314 11.4244 1.39445 11.4244C2.37573 11.4244 2.48994 11.4119 2.62093 11.2899C2.82267 11.102 2.86818 10.9108 2.7632 10.6919C2.6149 10.3826 2.41966 10.3312 1.40738 10.3348C0.899261 10.3367 0.416047 10.3654 0.333516 10.3986ZM28.5073 10.4181C28.2981 10.5239 28.1411 10.8304 28.2004 11.0173C28.2245 11.0932 28.3092 11.2159 28.3887 11.2899C28.5197 11.4119 28.6339 11.4244 29.6152 11.4244C30.6013 11.4244 30.7092 11.4125 30.8323 11.2893C31.1318 10.9898 31.0431 10.5425 30.655 10.3949C30.3948 10.296 28.7128 10.3141 28.5073 10.4181ZM17.6944 15.3423C17.6942 17.611 17.7494 17.3617 17.0457 18.2724C16.3175 19.2149 16.3632 18.9952 16.3398 21.6725L16.3193 24.0163H15.5048H14.6903L14.6698 21.6725C14.6464 18.9952 14.6921 19.2149 13.9639 18.2724C13.2602 17.3617 13.3155 17.611 13.3152 15.3423L13.3149 13.3406H15.5048H17.6947L17.6944 15.3423ZM1.88642 13.9591C0.793188 14.3896 0.585011 14.6337 0.933341 15.0764C1.11449 15.3067 1.38261 15.3118 1.92598 15.0952C2.14887 15.0063 2.55523 14.8493 2.82903 14.7464C3.21103 14.6027 3.35071 14.5131 3.42934 14.3611C3.62273 13.9871 3.37897 13.6101 2.949 13.6183C2.83506 13.6205 2.35691 13.7739 1.88642 13.9591ZM27.68 13.7424C27.4939 13.8931 27.4617 14.3089 27.6236 14.4708C27.7738 14.6211 29.4641 15.255 29.717 15.2559C30.1094 15.2574 30.3453 14.7844 30.1156 14.4566C29.9971 14.2873 28.3312 13.6143 28.0307 13.6143C27.9248 13.6143 27.767 13.672 27.68 13.7424ZM19.8459 25.1096C20.015 25.1738 20.0215 25.1974 20.0215 25.746C20.0215 26.0979 19.9901 26.3471 19.9393 26.3978C19.8207 26.5165 11.1889 26.5165 11.0703 26.3978C11.0196 26.3471 10.9882 26.0977 10.9882 25.7455C10.9882 25.2182 10.9997 25.1707 11.1421 25.1134C11.3553 25.0277 19.6211 25.0241 19.8459 25.1096ZM19.8891 27.6457C20.0036 27.707 20.0215 27.793 20.0215 28.2822C20.0215 28.6308 19.99 28.8792 19.9393 28.9299C19.8207 29.0486 11.1889 29.0486 11.0703 28.9299C11.0197 28.8793 10.9882 28.631 10.9882 28.2832C10.9882 27.8176 11.0092 27.7064 11.1079 27.6488C11.2744 27.5518 19.7081 27.5489 19.8891 27.6457ZM19.255 30.1891C19.3056 30.2397 19.3371 30.4881 19.3371 30.8368C19.3371 31.326 19.3193 31.412 19.2048 31.4732C19.1183 31.5194 17.8331 31.5441 15.5048 31.5441C13.1765 31.5441 11.8913 31.5194 11.8049 31.4732C11.6904 31.412 11.6725 31.326 11.6725 30.8368C11.6725 30.4881 11.704 30.2397 11.7546 30.1891C11.8731 30.0706 19.1365 30.0706 19.255 30.1891ZM17.0104 32.7102C17.0104 32.9367 16.7662 33.3492 16.4779 33.6096C15.7532 34.2643 14.5947 34.0169 14.1312 33.1083C14.0586 32.9661 13.9993 32.787 13.9993 32.7102C13.9993 32.5739 14.0351 32.5706 15.5048 32.5706C16.9746 32.5706 17.0104 32.5739 17.0104 32.7102Z" fill="#EC7E75"/>
</svg>
