<svg width="30" height="35" viewBox="0 0 30 35" fill="none" xmlns="http://www.w3.org/2000/svg">
<path id="User (Traced)" fill-rule="evenodd" clip-rule="evenodd" d="M12.8336 0.0911652C12.0962 0.224805 11.1563 0.540419 10.5419 0.860757C8.79014 1.77405 7.1855 3.51999 6.49403 5.26518C5.83822 6.92034 5.73936 9.05988 6.23832 10.7984C7.04043 13.5932 9.42198 15.9099 12.2174 16.6148C15.9559 17.5576 19.7051 15.9807 21.7226 12.6171C22.5936 11.165 22.9818 9.19893 22.758 7.37343C22.5217 5.44647 21.6483 3.72128 20.2033 2.32744C19.0655 1.22998 17.872 0.569721 16.3252 0.182358C15.5392 -0.0144731 13.6836 -0.0629449 12.8336 0.0911652ZM15.0244 2.10562C15.8279 2.18983 16.5424 2.38105 17.0987 2.66072C18.7548 3.49316 19.9603 4.89528 20.4755 6.58789C20.6484 7.15613 20.6633 7.29723 20.6663 8.40215C20.669 9.35865 20.6446 9.69001 20.5453 10.0453C20.2308 11.1707 19.7085 12.054 18.85 12.9124C18.1911 13.5713 17.5637 13.9987 16.7919 14.3143C15.8789 14.6877 15.5921 14.7355 14.3055 14.7296C13.243 14.7246 13.088 14.7079 12.5255 14.5373C10.8108 14.0174 9.31902 12.7078 8.55442 11.0511C7.80653 9.4306 7.83515 7.24862 8.62528 5.64988C9.3019 4.28062 10.5984 3.06232 11.9581 2.51783C12.5488 2.28129 12.9619 2.17915 13.6209 2.10651C14.3083 2.03072 14.3098 2.03072 15.0244 2.10562ZM6.43228 17.0016C4.26207 17.3893 2.68845 18.6161 1.5788 20.7854C0.994951 21.9268 0.681801 22.8516 0.381865 24.3198C0.0841886 25.7771 0.00429241 26.6453 0.000458488 28.4618C-0.00296466 30.0618 0.009564 30.2554 0.150324 30.78C0.702135 32.8364 2.17909 34.2735 4.32355 34.8407L4.92609 35H14.5794H24.2326L24.8488 34.8412C26.894 34.3138 28.3727 32.9186 28.9616 30.9607C29.1297 30.4022 29.1501 30.2141 29.1796 28.9511C29.2542 25.7658 28.6563 22.7442 27.5427 20.6785C26.3865 18.5338 24.8532 17.3703 22.6973 17.0019C21.3245 16.7672 21.133 16.819 19.5263 17.8588C18.9895 18.2062 18.3037 18.6049 18.0025 18.7448C15.9337 19.7059 14.0579 19.8153 12.0333 19.0929C11.0836 18.7541 10.8846 18.6515 9.66749 17.8733C8.29851 16.998 8.05731 16.8916 7.45922 16.8984C7.19564 16.9013 6.73351 16.9478 6.43228 17.0016ZM8.54203 19.6402C9.75882 20.4251 10.5204 20.8066 11.5354 21.1399C12.7538 21.54 13.3858 21.6425 14.6136 21.6394C15.8302 21.6363 16.5987 21.504 17.7718 21.0957C18.8426 20.7229 19.2248 20.5302 20.4781 19.7309L21.6293 18.9968L22.0832 19.0349C23.0855 19.1189 24.1948 19.6642 24.7995 20.3702C25.8846 21.6369 26.4543 23.0462 26.867 25.4837C27.0305 26.4494 27.1712 28.837 27.105 29.523C26.9387 31.248 25.9587 32.3972 24.2882 32.8263C23.8553 32.9375 23.1583 32.9461 14.5794 32.9461C5.96385 32.9461 5.3049 32.9379 4.86509 32.8251C3.26614 32.4148 2.29246 31.3173 2.08919 29.6964C2.00437 29.0199 2.10179 26.7093 2.25611 25.7373C2.68058 23.0638 3.37294 21.3778 4.52764 20.2058C5.17776 19.5459 6.36135 19.0277 7.24123 19.0177C7.54316 19.0142 7.65283 19.0668 8.54203 19.6402Z" fill="#EC7E75"/>
</svg>
