<svg width="35" height="35" viewBox="0 0 35 35" fill="none" xmlns="http://www.w3.org/2000/svg">
<path id="Contact form (Traced)" fill-rule="evenodd" clip-rule="evenodd" d="M0.324954 0.0721978C-0.0187045 0.272363 0.000231953 -0.744665 0.000231953 17.4992C0.000231953 35.8238 -0.0208237 34.7374 0.338285 34.9296C0.427156 34.9772 4.71157 35 13.5565 35C26.6367 35 26.6433 34.9999 26.821 34.8602C26.9187 34.7832 27.0304 34.6064 27.0691 34.4671C27.1141 34.3048 27.1399 32.4942 27.1408 29.4284L27.1422 24.6431L30.9623 18.0278C33.9225 12.9013 34.8092 11.3128 34.902 10.9701C35.2571 9.65834 34.6246 8.28999 33.3783 7.67411C32.9368 7.4559 32.7917 7.41926 32.2686 7.39431C31.7784 7.37086 31.5834 7.39328 31.2171 7.5151C30.7402 7.67384 30.2389 8.00895 29.9215 8.38119C29.8156 8.50527 29.1465 9.61493 28.4346 10.847L27.1402 13.0871L27.1398 11.3794C27.1396 10.42 27.1086 9.56072 27.0691 9.41839C26.946 8.97526 26.4359 8.74543 26.0426 8.95591C25.7128 9.13236 25.7046 9.21925 25.7046 12.5006V15.5757L22.0402 21.921C20.0248 25.4109 18.3162 28.3828 18.2433 28.5252C18.1402 28.7268 18.0577 29.2871 17.8704 31.0546C17.7381 32.3034 17.6156 33.3943 17.5983 33.4789L17.5668 33.6327H9.50133H1.43585V17.4992V1.36562H13.5702H25.7046V2.46284C25.7046 3.86509 25.8056 4.10012 26.4086 4.10012C26.7148 4.10012 26.9806 3.8856 27.0691 3.56723C27.1604 3.23827 27.1604 0.860213 27.0691 0.531252C27.0304 0.391998 26.9187 0.215144 26.821 0.138168C26.6432 -0.00156544 26.6383 -0.00163381 13.5439 0.000417065C4.77331 0.00185268 0.405075 0.0255745 0.324954 0.0721978ZM25.9435 5.97421C25.4843 6.4334 25.7605 7.17643 26.3903 7.17643C26.6106 7.17643 26.7158 7.13282 26.872 6.97661C27.3114 6.53718 27.0111 5.80918 26.3903 5.80918C26.1836 5.80918 26.0646 5.85314 25.9435 5.97421ZM6.1867 7.40982C5.8803 7.71623 5.8803 8.14062 6.1867 8.44702L6.35173 8.61205H13.5381H20.7246L20.9244 8.41223C21.2058 8.13085 21.2058 7.726 20.9244 7.44462L20.7246 7.2448H13.5381H6.35173L6.1867 7.40982ZM32.7925 8.9434C33.3063 9.20687 33.5658 9.63851 33.5673 10.2322C33.5681 10.5563 33.5219 10.7193 33.3146 11.1244C33.1751 11.397 33.0386 11.62 33.0113 11.62C32.9516 11.62 30.618 10.2694 30.5331 10.1856C30.4534 10.1071 30.833 9.45462 31.1192 9.17795C31.5666 8.74543 32.2261 8.653 32.7925 8.9434ZM6.1867 11.2381C5.8803 11.5445 5.8803 11.9689 6.1867 12.2753L6.35173 12.4404H13.5381H20.7246L20.9244 12.2405C21.2058 11.9591 21.2058 11.5543 20.9244 11.2729L20.7246 11.0731H13.5381H6.35173L6.1867 11.2381ZM31.0653 12.1431C32.2695 12.839 32.3213 12.8777 32.2351 13.0147C32.1855 13.0936 29.9542 16.9574 27.2766 21.6009C24.599 26.2445 22.3857 30.068 22.3581 30.0978C22.3306 30.1276 21.735 29.8211 21.0346 29.4167L19.7611 28.6815L19.9214 28.4055C20.0096 28.2537 22.2113 24.438 24.8141 19.9261C29.8021 11.2791 29.723 11.4149 29.7732 11.4149C29.7908 11.4149 30.3722 11.7426 31.0653 12.1431ZM6.1867 15.0664C5.8803 15.3728 5.8803 15.7972 6.1867 16.1036L6.35173 16.2687H8.90322C11.696 16.2687 11.6547 16.2744 11.8254 15.8623C11.943 15.5783 11.8624 15.2127 11.6443 15.0411C11.4726 14.9061 11.3813 14.9014 8.90924 14.9014H6.35173L6.1867 15.0664ZM14.898 15.1012C14.7413 15.258 14.6982 15.3623 14.6982 15.585C14.6982 15.8078 14.7413 15.9121 14.898 16.0688L15.0978 16.2687H17.9112H20.7246L20.9244 16.0688C21.2058 15.7875 21.2058 15.3826 20.9244 15.1012L20.7246 14.9014H17.9112H15.0978L14.898 15.1012ZM6.1867 18.8947C5.8803 19.2011 5.8803 19.6255 6.1867 19.9319L6.35173 20.097H13.5381H20.7246L20.9244 19.8971C21.2058 19.6158 21.2058 19.2109 20.9244 18.9295L20.7246 18.7297H13.5381H6.35173L6.1867 18.8947ZM6.1867 22.723C5.8803 23.0294 5.8803 23.4538 6.1867 23.7602L6.35173 23.9253H8.39577H10.4397L10.6179 23.7602C10.943 23.4589 10.943 23.0244 10.6179 22.7231L10.4397 22.558H8.39577H6.35173L6.1867 22.723ZM12.7758 22.7505C12.5963 22.9109 12.5603 22.993 12.5603 23.2416C12.5603 23.4903 12.5963 23.5724 12.7758 23.7328L12.9913 23.9253H15.3882H17.785L17.9848 23.7254C18.1415 23.5687 18.1847 23.4644 18.1847 23.2416C18.1847 23.0189 18.1415 22.9146 17.9848 22.7578L17.785 22.558H15.3882H12.9913L12.7758 22.7505ZM6.1867 26.5513C5.8803 26.8577 5.8803 27.2821 6.1867 27.5885L6.35173 27.7536H9.64147H12.9313L13.1311 27.5537C13.4125 27.2724 13.4125 26.8675 13.1311 26.5861L12.9313 26.3863H9.64147H6.35173L6.1867 26.5513ZM25.6817 33.6101C25.6683 33.6235 24.4729 33.6263 23.0252 33.6165L20.3931 33.5986L21.767 32.5944L23.141 31.5901L24.4057 29.394L25.6704 27.1978L25.6881 30.3918C25.6979 32.1485 25.695 33.5967 25.6817 33.6101ZM20.255 30.5871C20.6767 30.8295 21.0791 31.0701 21.1494 31.1218C21.2667 31.2082 21.1898 31.2794 20.1923 32.0082C19.5957 32.4441 19.1048 32.7957 19.1015 32.7895C19.0666 32.7246 19.3871 30.1463 19.4301 30.1463C19.4621 30.1463 19.8333 30.3446 20.255 30.5871Z" fill="#EC7E75"/>
</svg>
