<svg width="35" height="22" viewBox="0 0 35 22" fill="none" xmlns="http://www.w3.org/2000/svg">
<path id="Handshake (Traced)" fill-rule="evenodd" clip-rule="evenodd" d="M4.03211 0.127217C3.90113 0.197285 3.74179 0.343369 3.67808 0.451924C3.61437 0.560479 2.76069 2.67873 1.7811 5.15915C0.547969 8.28153 0 9.74955 0 9.93063C0 10.2287 0.119834 10.494 0.352393 10.7108C0.538467 10.8842 3.39965 12.0321 3.77057 12.0821C3.92602 12.103 4.1045 12.0739 4.24245 12.0051C4.36454 11.9442 4.49121 11.8944 4.52402 11.8944C4.59888 11.8944 6.9568 13.3857 7.00485 13.4634C7.0242 13.4948 6.98906 13.6391 6.92672 13.7841C6.78159 14.1215 6.77831 14.8552 6.9205 15.1852C7.19264 15.8168 7.93229 16.3358 8.56201 16.3371C8.87202 16.3378 8.88672 16.3464 8.88672 16.5294C8.88672 16.8004 9.19946 17.3948 9.45602 17.6114C9.77874 17.8839 10.3193 18.1137 10.6394 18.1144C10.9122 18.1151 10.924 18.1242 10.9692 18.3714C11.0668 18.9054 11.5569 19.5046 12.0719 19.7198C12.2043 19.7752 12.4653 19.8407 12.6517 19.8654C12.9844 19.9095 12.9922 19.9161 13.0663 20.2099C13.3524 21.3464 14.6612 21.9466 15.7116 21.4232C15.9231 21.3179 16.1992 21.0945 16.3875 20.8763C16.5625 20.6736 16.7346 20.5077 16.7698 20.5077C16.8051 20.5077 17.0375 20.6572 17.2866 20.8398C17.9037 21.2927 18.2648 21.4189 18.8465 21.3853C19.3954 21.3535 19.8242 21.1669 20.199 20.797C20.4513 20.548 20.7793 19.9607 20.7806 19.7557C20.781 19.6716 20.9011 19.6532 21.4478 19.6532C22.0133 19.6532 22.1609 19.629 22.4219 19.4932C23.0072 19.189 23.381 18.7045 23.5158 18.0755L23.5897 17.7313H23.9134C24.8906 17.7313 25.8037 17.0077 25.9514 16.1165L25.9937 15.8612L26.4238 15.8676C27.2625 15.8802 27.9322 15.4906 28.3353 14.7556C28.5024 14.4508 28.5364 14.3095 28.5381 13.911C28.5392 13.6478 28.5156 13.3248 28.4858 13.1932L28.4315 12.954L29.2318 12.4413C30.4062 11.689 30.2869 11.7312 30.6573 11.9381C30.8957 12.0714 31.0393 12.1077 31.2277 12.0823C31.5999 12.0321 34.4611 10.8847 34.6476 10.7108C34.8798 10.4944 35 10.2289 35 9.93262C35 9.76459 34.7544 9.05017 34.304 7.90788C33.7038 6.38586 33.5819 6.12937 33.4187 6.04495C33.165 5.91384 33.0688 5.92129 32.8559 6.08884C32.7253 6.19158 32.6758 6.29351 32.6758 6.45989C32.6758 6.58793 32.9475 7.37625 33.291 8.24469C33.6294 9.10021 33.906 9.83302 33.9056 9.87315C33.9047 9.97056 31.2346 11.0277 31.1658 10.9578C31.0762 10.8667 27.6692 2.18094 27.7079 2.14218C27.7277 2.12242 28.3537 1.86587 29.099 1.57213C30.4216 1.05089 30.4554 1.04159 30.5093 1.18549C31.0349 2.59055 31.835 4.51281 31.9434 4.63121C32.2308 4.94491 32.8125 4.72261 32.8125 4.29912C32.8125 4.11975 31.5292 0.804659 31.3255 0.458077C31.1706 0.194346 30.8012 -0.000136647 30.4552 7.20384e-08C30.2151 6.84314e-05 27.97 0.8225 27.1583 1.20764C26.8766 1.34128 26.6389 1.72231 26.5931 2.1134L26.5576 2.41657L25.7373 2.71927C24.612 3.13448 24.3226 3.16668 23.2191 2.99906C22.0752 2.82536 21.8913 2.82427 21.7256 2.9899C21.5344 3.18117 21.5435 3.52871 21.7448 3.72347C21.8788 3.85301 22.0776 3.90906 22.8194 4.02609C24.3425 4.26651 24.777 4.22372 26.1706 3.69606C26.5994 3.5337 26.971 3.42884 27.0023 3.46145C27.0877 3.55024 29.8825 10.6697 29.8592 10.739C29.848 10.772 29.3647 11.1027 28.7853 11.4739L27.7317 12.1488L25.7775 10.7046C24.7026 9.91026 23.7195 9.18682 23.5926 9.09692C23.3707 8.93976 23.3135 8.9332 22.0887 8.92384C20.8959 8.91468 20.7819 8.90244 20.284 8.72956C19.3028 8.38893 18.6115 7.9666 17.7661 7.19134C17.3461 6.8062 17.132 6.69908 16.7822 6.69908C16.4296 6.69908 16.257 6.78979 15.6207 7.31001C14.2559 8.42563 13.1271 8.85179 12.2312 8.58963C11.81 8.46638 11.3477 8.11966 11.3477 7.92709C11.3477 7.84492 11.5032 7.6931 11.7749 7.50982C12.9552 6.71385 14.4009 5.52535 15.7076 4.27663C16.2069 3.79955 16.7212 3.36499 16.8504 3.31099C17.1708 3.17707 17.6363 3.19279 18.7646 3.37572C19.777 3.53985 20.0372 3.52181 20.1674 3.27845C20.2907 3.04814 20.2454 2.75283 20.0651 2.61099C19.8285 2.42491 17.6638 2.08277 17.1382 2.14847C16.5903 2.21689 15.9804 2.53559 15.4826 3.01355L15.0489 3.43007L14.48 3.28562C13.729 3.09497 12.9274 3.01506 11.1084 2.94971L9.60449 2.89563L9.02385 2.65815L8.4432 2.42074L8.3972 2.09918C8.33813 1.68602 8.12335 1.34128 7.84171 1.20764C7.71935 1.1496 6.9892 0.854082 6.21927 0.551045C4.71584 -0.0406735 4.44445 -0.0932421 4.03211 0.127217ZM6.10695 1.65238C7.07916 2.03725 7.31972 2.15763 7.29429 2.24663C7.21937 2.50872 3.88309 10.9082 3.83428 10.9578C3.76756 11.0254 1.09539 9.97227 1.09402 9.87779C1.09348 9.8402 1.86997 7.83699 2.81948 5.42623L4.5459 1.04296L4.7168 1.1064C4.81079 1.14126 5.43635 1.38694 6.10695 1.65238ZM8.63522 3.65394C9.29195 3.92581 9.83254 4.0222 10.6895 4.02015C12.0878 4.01687 13.9017 4.16862 14.034 4.29994C14.1053 4.37069 12.6139 5.61135 11.6557 6.27847C10.6671 6.96664 10.4227 7.21766 10.3327 7.63745C10.2106 8.20675 10.3491 8.58129 10.8423 9.01544C12.1751 10.1886 14.0841 9.90862 16.167 8.23443C16.4678 7.99265 16.7401 7.7944 16.7722 7.79386C16.8042 7.79331 17.0503 7.9828 17.3191 8.21502C18.2336 9.00525 19.1559 9.50995 20.2534 9.82071C20.7946 9.97391 21.0386 10.0016 21.9775 10.0165L23.0713 10.0339L25.1398 11.5583C26.2775 12.3967 27.2587 13.1593 27.3201 13.253C27.4712 13.4836 27.517 13.9653 27.412 14.2189C27.2228 14.6758 26.6881 14.9213 26.2194 14.7667C26.0849 14.7223 25.4165 14.2578 24.734 13.7345C23.3615 12.6822 23.185 12.6077 22.9054 12.9632C22.5991 13.3525 22.6973 13.5089 23.7618 14.3279C24.7982 15.1251 24.8618 15.1903 24.9164 15.5138C25.005 16.0385 24.6259 16.5727 24.1047 16.6573C23.7182 16.72 23.4326 16.5702 22.3138 15.7183C21.1423 14.8261 20.9826 14.763 20.6756 15.07C20.5082 15.2374 20.4696 15.4066 20.5507 15.6181C20.5743 15.6796 20.9915 16.0387 21.4776 16.416C21.9669 16.7958 22.3904 17.1777 22.4259 17.2713C22.6378 17.8285 22.3413 18.4496 21.793 18.5973C21.3307 18.7218 21.1177 18.6259 20.0222 17.7999C19.362 17.3021 18.9294 17.0213 18.8228 17.0213C18.4886 17.0213 18.2293 17.4565 18.3601 17.7975C18.382 17.8546 18.6752 18.1109 19.0116 18.3671C19.5017 18.7403 19.6386 18.8838 19.7004 19.0892C19.9171 19.8095 19.1854 20.5279 18.4697 20.2975C18.3311 20.253 18.0406 20.0861 17.824 19.9268C17.5107 19.6963 17.4489 19.6214 17.5219 19.5608C17.5724 19.5189 17.7021 19.3226 17.8102 19.1246C17.9722 18.8278 18.0072 18.6804 18.0097 18.286C18.0162 17.2529 17.3454 16.5082 16.281 16.367C15.9816 16.3273 15.9277 16.298 15.9271 16.1751C15.9259 15.9225 15.6169 15.3537 15.3566 15.1251C14.9915 14.8046 14.7258 14.6867 14.276 14.646C13.9273 14.6143 13.8769 14.5916 13.8763 14.4655C13.8752 14.2365 13.5731 13.659 13.3213 13.4048C13.0415 13.1223 12.6212 12.9266 12.1831 12.8747L11.8565 12.836L11.743 12.4506C11.4194 11.3531 10.1605 10.8042 9.12687 11.3099C8.84468 11.4479 8.626 11.6396 8.25918 12.0704C7.9895 12.3872 7.75715 12.6463 7.74293 12.6463C7.72871 12.6463 7.54188 12.5283 7.32778 12.3839C7.11368 12.2396 6.55396 11.8813 6.08398 11.5875C5.61401 11.2939 5.18697 11.0146 5.13509 10.967C5.05572 10.8942 5.26203 10.3187 6.424 7.37126C8.04405 3.26177 7.98075 3.41783 8.02792 3.41783C8.04822 3.41783 8.32146 3.52406 8.63522 3.65394ZM10.3215 12.27C10.6126 12.4205 10.7324 12.6341 10.7324 13.0023C10.7324 13.3145 10.7049 13.3606 10.0566 14.1321C9.12181 15.2447 9.08161 15.2782 8.68062 15.2782C8.40697 15.2782 8.31223 15.2431 8.1401 15.0782C7.92066 14.868 7.81826 14.5363 7.88751 14.2604C7.93981 14.052 9.37604 12.353 9.58494 12.2524C9.80807 12.1449 10.0928 12.1517 10.3215 12.27ZM12.4469 14.0618C12.7125 14.2188 12.8766 14.5766 12.8203 14.8764C12.777 15.1072 12.1174 15.959 11.4115 16.6956C11.1243 16.9954 11.0733 17.0213 10.7726 17.0213C10.2091 17.0213 9.83247 16.5825 9.94725 16.0598C9.99975 15.821 11.3922 14.147 11.6361 14.0295C11.8703 13.9167 12.2251 13.9308 12.4469 14.0618ZM14.3903 15.7526C14.8083 15.9273 15.0232 16.4893 14.8145 16.8619C14.6362 17.18 13.3662 18.6068 13.1718 18.7074C12.5461 19.0309 11.8154 18.3984 12.0522 17.7382C12.097 17.613 12.4644 17.1245 12.8685 16.6527C13.4099 16.0207 13.6618 15.778 13.8255 15.7307C14.1315 15.6423 14.126 15.6421 14.3903 15.7526ZM16.5452 17.5352C16.8988 17.7181 17.0633 18.2589 16.8736 18.6152C16.8299 18.6973 16.4764 19.1382 16.088 19.595C15.2443 20.5875 15.0282 20.707 14.5166 20.4643C14.0567 20.246 13.9316 19.6081 14.2682 19.197C14.9441 18.3717 15.6959 17.5476 15.818 17.4983C16.0427 17.4075 16.3261 17.4219 16.5452 17.5352Z" fill="#EC7E75"/>
</svg>
