<svg width="129" height="34" viewBox="0 0 129 34" fill="none" xmlns="http://www.w3.org/2000/svg">
<path id="Vector" d="M128.966 31.9495C127.721 23.4919 117.905 18.2447 111.248 14.1865C100.065 7.40536 87.3798 3.03299 74.4192 1.40027C53.5865 -1.22278 32.8232 3.76379 14.9857 14.2517C16.9096 11.4645 18.8713 8.67397 20.7952 5.88671C22.519 3.42063 19.0242 0.34242 17.1496 2.82155C11.9324 9.69198 6.71527 16.5624 1.49813 23.4328C0.219669 25.1197 1.42583 27.4273 3.54687 27.3578C14.5496 26.9948 25.5621 26.745 36.555 26.2689C39.5637 26.1416 39.1314 21.583 36.1539 21.6317C27.8108 21.7836 19.4979 22.0658 11.1645 22.3308C26.6394 11.5345 44.5889 5.19599 63.71 5.15634C75.4444 5.1289 87.0934 7.40683 97.9759 11.8022C106.635 15.3072 124.557 22.4742 126.822 32.4198C127.098 33.6304 129.149 33.1871 128.966 31.9495Z" fill="white"/>
</svg>
