<svg width="56" height="97" viewBox="0 0 56 97" fill="none" xmlns="http://www.w3.org/2000/svg">
<path id="Vector" d="M54.7005 0.228983C43.9086 -0.952778 32.8268 2.49217 24.4207 9.34861C18.5899 14.1091 15.4349 20.6534 17.9879 27.1419C8.37774 32.85 2.17908 43.4636 7.31862 55.114C8.07673 56.8309 9.12471 58.414 10.3622 59.841C10.2396 60.0194 10.1169 60.1978 10.0055 60.3761C3.81793 69.9529 4.1301 81.5364 7.94295 91.8489C5.76895 90.21 3.59496 88.5712 1.42097 86.9212C0.45103 86.1854 -0.418567 87.6793 0.216908 88.482C1.76658 90.433 5.8024 97.3006 9.03552 96.6317C12.1126 95.9962 14.4426 89.0506 15.7805 86.7205C16.4271 85.6056 14.6991 84.5911 14.0524 85.7171C13.272 87.0773 11.8227 90.5891 10.2953 92.5513C6.95071 84.435 5.7801 75.3042 8.90173 66.8981C9.54836 65.1478 10.5294 63.2079 11.7669 61.3015C16.193 65.4376 22.492 67.6005 28.4342 65.8501C34.789 63.9883 40.341 55.2366 33.5738 50.2197C26.4163 44.9241 16.4717 52.1707 11.5328 58.2802C5.35645 50.7883 7.02876 39.4278 13.5284 32.6048C15.0112 31.044 16.7504 29.695 18.6457 28.5689C19.1585 29.55 19.8163 30.5311 20.619 31.501C25.4464 37.3207 37.9887 42.6497 45.213 38.3352C52.56 33.9426 46.6623 25.5699 40.6197 23.7527C33.7633 21.7014 26.0038 22.9054 19.5153 26.2946C18.4673 23.5966 18.3335 20.6088 19.5822 17.6209C21.3994 13.3064 25.8254 9.89489 29.694 7.49793C37.3086 2.77088 45.8262 1.00939 54.7005 1.17662C55.3249 1.18777 55.2914 0.295875 54.7005 0.228983ZM28.8244 50.7102C36.2049 51.9031 35.8704 59.7407 30.5413 62.9069C28.5123 64.111 25.9815 64.6238 23.6514 64.5458C19.6156 64.412 15.747 62.5055 12.8595 59.7295C16.795 54.367 22.6704 49.718 28.8244 50.7102ZM39.2708 25.3581C40.6197 25.6257 41.8907 26.1051 43.0948 26.7963C47.0637 29.1375 47.465 32.471 44.31 36.7967C42.6377 37.945 40.0623 37.9784 38.1559 37.8558C33.8748 37.5994 29.1366 35.994 25.6025 33.6304C23.317 32.1031 21.3883 30.0517 20.1508 27.7216C25.9927 24.7338 33.0721 23.7639 39.2596 25.3581H39.2708Z" fill="#272727"/>
</svg>
