<svg width="150" height="91" viewBox="0 0 150 91" fill="none" xmlns="http://www.w3.org/2000/svg">
<g clip-path="url(#clip0_201_231)">
<path d="M125.133 14.4861C130.817 20.0329 136.524 25.5703 142.208 31.1172C141.914 31.2388 141.62 31.3603 141.325 31.4819C118.812 19.6424 91.3394 17.2183 68.1063 27.6155C44.2357 38.3292 16.6257 51.7277 9.92892 79.3761C9.70772 80.3154 11.2907 80.7475 11.5665 79.8121C19.0124 53.6559 44.6079 41.8584 67.5842 31.6734C89.2666 22.0761 114.89 23.0387 136.396 33.4664C131.408 35.5015 126.442 37.5273 121.454 39.5624C118.987 40.5819 120.551 44.1749 123.025 43.3644C129.971 41.1296 136.93 38.8628 143.867 36.6053C144.755 36.3178 145.225 35.2756 145.105 34.3447C145.626 34.1296 146.146 33.9144 146.644 33.7087C148.228 33.0539 148.185 31.2172 147.118 30.1743C140.611 23.8547 134.126 17.5258 127.61 11.1835C125.711 9.34525 123.247 12.6158 125.124 14.4634L125.133 14.4861Z" fill="white"/>
</g>
<defs>
<clipPath id="clip0_201_231">
<rect width="37.2949" height="145.923" fill="white" transform="translate(14.2454 90.2043) rotate(-112.455)"/>
</clipPath>
</defs>
</svg>
