<svg width="60" height="60" viewBox="0 0 60 60" fill="none" xmlns="http://www.w3.org/2000/svg">
<g id="Group">
<path id="Vector" d="M29.7611 0.50097L29.7631 0.500954C35.6076 0.453972 41.3342 2.14412 46.2166 5.35697C51.099 8.56981 54.9169 13.1605 57.1861 18.5467C59.4553 23.9328 60.0734 29.8717 58.962 35.6097C57.8506 41.3477 55.0597 46.6262 50.9436 50.7756C46.8275 54.9249 41.5716 57.7581 35.8427 58.9157C30.1138 60.0732 24.1702 59.5029 18.766 57.2771C13.3617 55.0513 8.74045 51.2704 5.48844 46.4141C2.23643 41.5577 0.500271 35.8448 0.500245 30.0001L0.500237 29.9981C0.468943 22.2064 3.53418 14.7213 9.02165 9.18948C14.5091 3.65769 21.9693 0.532346 29.7611 0.50097Z" stroke="#636C78"/>
<path id="Vector_2" d="M29.4427 0.500977C37.5234 0.500977 44.7085 4.00225 49.8776 8.88143C55.0567 13.7701 58.1573 19.9877 58.1573 25.3637C58.1573 30.7006 55.0971 35.2969 49.9518 38.5813C44.8024 41.8683 37.5975 43.8129 29.4427 43.8129C21.288 43.8129 14.3382 41.8695 9.44315 38.589C4.55619 35.3138 1.72852 30.7196 1.72852 25.3637C1.72852 19.9722 4.59154 13.7529 9.51706 8.87144C14.4337 3.99881 21.3651 0.500977 29.4427 0.500977Z" stroke="#636C78"/>
<path id="Vector_3" d="M58.5848 29.7233C58.4035 41.2389 48.6339 52.7812 32.7534 52.7812C24.7848 52.7812 18.4842 50.2805 14.2459 46.1752C10.0096 42.0719 7.79285 36.3269 8.05734 29.7513C8.31895 23.2474 12.1207 18.0462 17.1717 14.4529C22.2278 10.8559 28.4767 8.91602 33.4932 8.91602C38.4898 8.91602 44.8306 11.246 49.9032 15.051C54.9804 18.8594 58.6725 24.0548 58.5848 29.7233Z" stroke="#636C78"/>
<path id="Vector_4" d="M58.8265 29.4205C59.1089 45.5985 47.7935 55.6279 36.9409 58.5363C34.3147 59.2401 31.9995 58.8495 29.98 57.6334C27.9457 56.4083 26.1817 54.3263 24.7248 51.6043C21.8093 46.1571 20.1938 38.2766 20.0511 30.0973C19.9088 21.9488 21.9048 14.1358 25.0842 8.69387C28.2822 3.21988 32.5461 0.324718 36.9405 1.5025C46.2611 4.00056 58.5444 13.2548 58.8265 29.4205Z" stroke="#636C78"/>
</g>
</svg>
