<svg width="40" height="78" viewBox="0 0 40 78" fill="none" xmlns="http://www.w3.org/2000/svg">
<g clip-path="url(#clip0_201_265)">
<path d="M4.3999 2.2C4.3999 0.98 3.4099 -4.32743e-08 2.1999 -9.61651e-08C0.989902 -1.49056e-07 -9.92254e-05 0.99 -9.92783e-05 2.2C-9.93312e-05 3.41 0.989901 4.4 2.1999 4.4C3.4099 4.4 4.3999 3.41 4.3999 2.2Z" fill="#99A1AC"/>
<path d="M4.3999 16.93C4.3999 15.71 3.4099 14.73 2.1999 14.73C0.989902 14.73 -9.92254e-05 15.72 -9.92783e-05 16.93C-9.93312e-05 18.14 0.989901 19.13 2.1999 19.13C3.4099 19.13 4.3999 18.14 4.3999 16.93Z" fill="#99A1AC"/>
<path d="M4.3999 31.66C4.3999 30.44 3.4099 29.46 2.1999 29.46C0.989902 29.46 -9.92254e-05 30.45 -9.92783e-05 31.66C-9.93312e-05 32.87 0.989901 33.86 2.1999 33.86C3.4099 33.86 4.3999 32.87 4.3999 31.66Z" fill="#99A1AC"/>
<path d="M4.3999 46.3799C4.3999 45.1599 3.4099 44.1799 2.1999 44.1799C0.989902 44.1799 -9.92254e-05 45.1699 -9.92783e-05 46.3799C-9.93312e-05 47.5899 0.989901 48.5799 2.1999 48.5799C3.4099 48.5799 4.3999 47.5899 4.3999 46.3799Z" fill="#99A1AC"/>
<path d="M4.3999 61.1099C4.3999 59.8899 3.4099 58.9099 2.1999 58.9099C0.989902 58.9099 -9.92254e-05 59.8999 -9.92783e-05 61.1099C-9.93312e-05 62.3199 0.989901 63.3099 2.1999 63.3099C3.4099 63.3099 4.3999 62.3199 4.3999 61.1099Z" fill="#99A1AC"/>
<path d="M4.3999 75.8399C4.3999 74.6199 3.4099 73.6399 2.1999 73.6399C0.989902 73.6399 -9.92254e-05 74.6299 -9.92783e-05 75.8399C-9.93312e-05 77.0499 0.989901 78.0399 2.1999 78.0399C3.4099 78.0399 4.3999 77.0499 4.3999 75.8399Z" fill="#99A1AC"/>
<path d="M16.28 2.2C16.28 0.98 15.29 -4.32743e-08 14.08 -9.61651e-08C12.87 -1.49056e-07 11.88 0.99 11.88 2.2C11.88 3.41 12.87 4.4 14.08 4.4C15.29 4.4 16.28 3.41 16.28 2.2Z" fill="#99A1AC"/>
<path d="M11.88 16.93C11.88 18.145 12.865 19.13 14.08 19.13C15.2951 19.13 16.28 18.145 16.28 16.93C16.28 15.715 15.2951 14.73 14.08 14.73C12.865 14.73 11.88 15.715 11.88 16.93Z" fill="#99A1AC"/>
<path d="M11.88 31.66C11.88 32.875 12.865 33.86 14.08 33.86C15.2951 33.86 16.28 32.875 16.28 31.66C16.28 30.4449 15.2951 29.46 14.08 29.46C12.865 29.46 11.88 30.4449 11.88 31.66Z" fill="#99A1AC"/>
<path d="M11.88 46.3799C11.88 47.595 12.865 48.5799 14.08 48.5799C15.2951 48.5799 16.28 47.595 16.28 46.3799C16.28 45.1649 15.2951 44.1799 14.08 44.1799C12.865 44.1799 11.88 45.1649 11.88 46.3799Z" fill="#99A1AC"/>
<path d="M16.28 61.1099C16.28 59.8899 15.29 58.9099 14.08 58.9099C12.87 58.9099 11.88 59.8999 11.88 61.1099C11.88 62.3199 12.87 63.3099 14.08 63.3099C15.29 63.3099 16.28 62.3199 16.28 61.1099Z" fill="#99A1AC"/>
<path d="M16.28 75.8399C16.28 74.6199 15.29 73.6399 14.08 73.6399C12.87 73.6399 11.88 74.6299 11.88 75.8399C11.88 77.0499 12.87 78.0399 14.08 78.0399C15.29 78.0399 16.28 77.0499 16.28 75.8399Z" fill="#99A1AC"/>
<path d="M28.1699 2.2C28.1699 0.98 27.1799 -4.32743e-08 25.9699 -9.61651e-08C24.7599 -1.49056e-07 23.7699 0.99 23.7699 2.2C23.7699 3.41 24.7599 4.4 25.9699 4.4C27.1799 4.4 28.1699 3.41 28.1699 2.2Z" fill="#99A1AC"/>
<path d="M23.7599 16.93C23.7599 18.145 24.7449 19.13 25.9599 19.13C27.1749 19.13 28.1599 18.145 28.1599 16.93C28.1599 15.715 27.1749 14.73 25.9599 14.73C24.7449 14.73 23.7599 15.715 23.7599 16.93Z" fill="#99A1AC"/>
<path d="M23.7599 31.66C23.7599 32.875 24.7449 33.86 25.9599 33.86C27.1749 33.86 28.1599 32.875 28.1599 31.66C28.1599 30.4449 27.1749 29.46 25.9599 29.46C24.7449 29.46 23.7599 30.4449 23.7599 31.66Z" fill="#99A1AC"/>
<path d="M23.7599 46.3799C23.7599 47.595 24.7449 48.5799 25.9599 48.5799C27.1749 48.5799 28.1599 47.595 28.1599 46.3799C28.1599 45.1649 27.1749 44.1799 25.9599 44.1799C24.7449 44.1799 23.7599 45.1649 23.7599 46.3799Z" fill="#99A1AC"/>
<path d="M28.1699 61.1099C28.1699 59.8899 27.1799 58.9099 25.9699 58.9099C24.7599 58.9099 23.7699 59.8999 23.7699 61.1099C23.7699 62.3199 24.7599 63.3099 25.9699 63.3099C27.1799 63.3099 28.1699 62.3199 28.1699 61.1099Z" fill="#99A1AC"/>
<path d="M28.1699 75.8399C28.1699 74.6199 27.1799 73.6399 25.9699 73.6399C24.7599 73.6399 23.7699 74.6299 23.7699 75.8399C23.7699 77.0499 24.7599 78.0399 25.9699 78.0399C27.1799 78.0399 28.1699 77.0499 28.1699 75.8399Z" fill="#99A1AC"/>
<path d="M40.05 2.2C40.05 0.98 39.0601 -4.32742e-08 37.85 -9.6165e-08C36.64 -1.49056e-07 35.65 0.99 35.65 2.2C35.65 3.41 36.64 4.4 37.85 4.4C39.06 4.4 40.05 3.41 40.05 2.2Z" fill="#99A1AC"/>
<path d="M40.05 16.93C40.05 15.71 39.0601 14.73 37.85 14.73C36.64 14.73 35.65 15.72 35.65 16.93C35.65 18.14 36.64 19.13 37.85 19.13C39.06 19.13 40.05 18.14 40.05 16.93Z" fill="#99A1AC"/>
<path d="M40.05 31.66C40.05 30.44 39.0601 29.46 37.85 29.46C36.64 29.46 35.65 30.45 35.65 31.66C35.65 32.87 36.64 33.86 37.85 33.86C39.06 33.86 40.05 32.87 40.05 31.66Z" fill="#99A1AC"/>
<path d="M40.05 46.3802C40.05 45.1602 39.0601 44.1802 37.85 44.1802C36.64 44.1802 35.65 45.1702 35.65 46.3802C35.65 47.5902 36.64 48.5802 37.85 48.5802C39.06 48.5802 40.05 47.5902 40.05 46.3802Z" fill="#99A1AC"/>
<path d="M40.05 61.1102C40.05 59.8902 39.0601 58.9102 37.85 58.9102C36.64 58.9102 35.65 59.9002 35.65 61.1102C35.65 62.3202 36.64 63.3102 37.85 63.3102C39.06 63.3102 40.05 62.3202 40.05 61.1102Z" fill="#99A1AC"/>
<path d="M40.05 75.8401C40.05 74.6201 39.0601 73.6401 37.85 73.6401C36.64 73.6401 35.65 74.6301 35.65 75.8401C35.65 77.0501 36.64 78.0401 37.85 78.0401C39.06 78.0401 40.05 77.0501 40.05 75.8401Z" fill="#99A1AC"/>
</g>
<defs>
<clipPath id="clip0_201_265">
<rect width="78" height="40" fill="white" transform="translate(40) rotate(90)"/>
</clipPath>
</defs>
</svg>
