<svg width="231" height="17" viewBox="0 0 231 17" fill="none" xmlns="http://www.w3.org/2000/svg">
<path d="M49 1H52.6982L55.6367 11.0677L59.1485 1H62.8467L66.3633 11.0677L69.3018 1H73L68.1933 16H64.7722L61.0263 5.69314L57.2564 16H53.8115L49 1Z" fill="white"/>
<path d="M74 8.98837C74 4.64545 77.9131 1 82.5 1C87.0869 1 91 4.64545 91 8.98837C91 13.3313 87.1351 17 82.5 17C77.865 17 74 13.3313 74 8.98837ZM87.4864 8.98837C87.4864 6.31008 85.205 4.01773 82.5 4.01773C79.795 4.01773 77.5377 6.31473 77.5377 8.98837C77.5377 11.662 79.8191 13.9823 82.5 13.9823C85.1809 13.9823 87.4864 11.6853 87.4864 8.98837Z" fill="white"/>
<path d="M102.951 16L99.1658 11.1309H96.5411V16H93V1H100.446C104.037 1 106.686 3.09386 106.686 6.06769C106.686 8.29693 105.192 10.0433 102.926 10.7608L107 16H102.951ZM96.5411 8.18412H100.062C101.82 8.18412 103.026 7.35379 103.026 6.06769C103.026 4.78159 101.82 3.95126 100.062 3.95126H96.5411V8.18863V8.18412Z" fill="white"/>
<path d="M110 1H113.303V7.87726L119.55 1H123.573L117.548 7.50722L124 16H119.977L115.235 9.79964L113.303 11.8078V16H110V1Z" fill="white"/>
<path d="M129.356 3.89711V6.88899H137.18V9.79513H129.356V13.0939H138V16H126V1H138V3.90614H129.356V3.89711Z" fill="white"/>
<path d="M150.24 16L146.725 11.1309H144.288V16H141V1H147.914C151.248 1 153.709 3.09386 153.709 6.06769C153.709 8.29693 152.321 10.0433 150.217 10.7608L154 16H150.24ZM144.288 8.18412H147.558C149.19 8.18412 150.31 7.35379 150.31 6.06769C150.31 4.78159 149.19 3.95126 147.558 3.95126H144.288V8.18863V8.18412Z" fill="white"/>
<path d="M155.009 14.438L156.94 12.1642C158.414 13.4243 160.1 14.1915 162.078 14.1915C163.759 14.1915 164.623 13.4243 164.623 12.4571C164.623 11.3551 163.717 11.0157 161.326 10.4763C158.029 9.73235 155.69 8.81168 155.69 5.8172C155.69 2.82272 158.053 1 161.462 1C164.008 1 165.985 1.78582 167.577 3.13891L165.826 5.52427C164.44 4.42226 162.871 3.81314 161.368 3.81314C159.866 3.81314 159.072 4.55711 159.072 5.47777C159.072 6.60302 160.002 6.96106 162.411 7.50509C165.774 8.24906 168 9.23946 168 12.0944C168 14.9494 165.75 17 161.932 17C159.227 17 156.818 16.1026 155 14.4333L155.009 14.438Z" fill="white"/>
<path d="M172 14.4436C172 13.1512 172.903 12 174.045 12C175.124 12 176 13.1569 176 14.4436C176 15.8431 175.12 17 174.045 17C172.903 17 172 15.8431 172 14.4436Z" fill="white"/>
<path d="M179 8.48773C179 3.87323 182.986 0 187.665 0C190.131 0 192.411 1.05053 194 2.74906L191.461 5.04649C190.511 3.94687 189.161 3.2056 187.665 3.2056C184.936 3.2056 182.611 5.64539 182.611 8.48773C182.611 11.3301 184.936 13.7944 187.665 13.7944C189.161 13.7944 190.511 13.0531 191.461 11.9535L194 14.2509C192.411 15.9249 190.131 17 187.665 17C182.986 17 179 13.1022 179 8.48773Z" fill="white"/>
<path d="M194 8.48773C194 3.87323 197.911 0 202.5 0C207.089 0 211 3.87323 211 8.48773C211 13.1022 207.132 17 202.5 17C197.868 17 194 13.1022 194 8.48773ZM207.481 8.48773C207.481 5.64048 205.201 3.2056 202.5 3.2056C199.799 3.2056 197.542 5.64539 197.542 8.48773C197.542 11.3301 199.823 13.7944 202.5 13.7944C205.177 13.7944 207.481 11.3546 207.481 8.48773Z" fill="white"/>
<path d="M214 1H217.471L222.498 9.4728L227.505 1H231V16H227.505V6.65302L222.498 15.1258L217.471 6.65302V16H214V1Z" fill="white"/>
<path d="M0 16V1H2V16H0Z" fill="#F08178"/>
<path d="M31.0756 9.7974C31.7111 8.90613 32.1534 8.21292 32.3958 7.71446C32.743 6.99814 32.9166 6.31153 32.9166 5.65463C32.9166 4.61811 32.5923 3.74995 31.9404 3.04683C31.2918 2.34702 30.4795 1.99381 29.5131 1.99381C28.5468 1.99381 27.7737 2.35692 27.1185 3.07984C26.4601 3.80276 26.1325 4.69734 26.1325 5.76357C26.1325 6.82979 26.4601 7.66165 27.112 8.30534C27.7638 8.94904 28.6352 9.26924 29.7228 9.26924H30.5057L29.156 11.1112C27.5607 11.1112 26.3029 10.626 25.3824 9.65216C24.4619 8.68166 24 7.39757 24 5.80648C24 4.09655 24.5143 2.70023 25.5429 1.6208C26.5715 0.541366 27.8916 0 29.5 0C30.9774 0 32.2647 0.514958 33.3588 1.54487C34.4529 2.57479 35 3.84238 35 5.34764C35 6.37095 34.7609 7.38436 34.2826 8.39447C33.9485 9.11079 33.3326 10.0912 32.4351 11.3324L29.1724 16H26.673L31.0724 9.7974H31.0756Z" fill="#F08178"/>
<path d="M43.0756 9.7974C43.7111 8.90613 44.1534 8.21292 44.3958 7.71446C44.743 6.99814 44.9166 6.31153 44.9166 5.65463C44.9166 4.61811 44.5923 3.74995 43.9404 3.04683C43.2918 2.34702 42.4795 1.99381 41.5131 1.99381C40.5468 1.99381 39.7737 2.35692 39.1185 3.07984C38.4601 3.80276 38.1325 4.69734 38.1325 5.76357C38.1325 6.82979 38.4601 7.66165 39.112 8.30534C39.7638 8.94904 40.6352 9.26924 41.7228 9.26924H42.5057L41.156 11.1112C39.5607 11.1112 38.3029 10.626 37.3824 9.65216C36.4619 8.68166 36 7.39757 36 5.80648C36 4.09655 36.5143 2.70023 37.5429 1.6208C38.5715 0.541366 39.8916 0 41.5 0C42.9774 0 44.2647 0.514958 45.3588 1.54487C46.4529 2.57479 47 3.84238 47 5.34764C47 6.37095 46.7609 7.38436 46.2826 8.39447C45.9485 9.11079 45.3326 10.0912 44.4351 11.3324L41.1724 16H38.673L43.0724 9.7974H43.0756Z" fill="#F08178"/>
<path d="M19.6592 2.5091C18.0964 0.835221 16.2139 0 14.0115 0C11.8092 0 9.9761 0.845532 8.38698 2.53316C6.79786 4.22078 6 6.20744 6 8.48969C6 10.7719 6.79456 12.817 8.38698 14.4909C9.9761 16.1648 11.852 17 14.0115 17C16.171 17 18.0964 16.1545 19.6592 14.4668C21.2186 12.7792 22 10.7857 22 8.48969C22 6.19369 21.2186 4.18641 19.6592 2.51254V2.5091ZM18.1492 12.982C18.0239 13.1229 17.8953 13.2535 17.7667 13.3807C17.437 11.8959 16.4743 10.7135 15.2314 10.2529C15.993 9.80611 16.5106 8.9537 16.5106 7.97412C16.5106 6.53053 15.3864 5.35847 14.0016 5.35847C12.6169 5.35847 11.4927 6.53053 11.4927 7.97412C11.4927 8.9812 12.04 9.85423 12.8411 10.2907C11.6114 10.7857 10.6718 11.9921 10.3717 13.4907C10.197 13.3326 10.0288 13.1642 9.864 12.9786C8.71997 11.6862 8.1463 10.1808 8.1463 8.46219C8.1463 6.74363 8.72327 5.22099 9.87719 3.94581C11.0278 2.66721 12.4092 2.0279 14.0148 2.0279C15.6204 2.0279 17.015 2.67408 18.1525 3.96644C19.2899 5.25879 19.8603 6.75738 19.8603 8.46219C19.8603 10.167 19.2899 11.6862 18.1525 12.9786L18.1492 12.982Z" fill="#F08178"/>
</svg>
