<svg width="54" height="60" viewBox="0 0 54 60" fill="none" xmlns="http://www.w3.org/2000/svg">
<path fill-rule="evenodd" clip-rule="evenodd" d="M1.04164 0.285851C0.782439 0.442703 0.442091 0.783052 0.285239 1.04225L0 1.51341L0.00145357 29.3711L0.00278609 57.2289L0.273369 57.7066C0.422226 57.9694 0.734718 58.2964 0.967875 58.4333C1.38865 58.6805 1.51304 58.6828 18.1669 58.7429L34.9421 58.8034L35.7001 59.1417C37.2751 59.8447 38.1354 60 40.4531 60C42.244 60 42.7168 59.96 43.5023 59.7421C48.1012 58.466 51.5157 55.0464 52.7027 50.5279C53.0221 49.3122 53.1368 46.8464 52.9331 45.5749C52.3059 41.6606 49.941 38.2765 46.4788 36.3389L45.7824 35.9491V22.0397C45.7824 12.6485 45.7412 8.01952 45.6556 7.78927C45.5117 7.40229 38.6297 0.439796 38.1275 0.173088C37.8476 0.0244732 35.182 -0.000477644 19.6567 6.83858e-06L1.5128 0.000612455L1.04164 0.285851ZM36.6986 4.87451C36.6988 9.24066 36.5416 9.08345 40.9053 9.08345H43.8444V22.1668V35.2501L43.5719 35.1882C42.5222 34.9498 42.1622 34.8877 41.8157 34.885L41.422 34.8821V30.3347V25.7871L41.1247 25.4898L40.8275 25.1925L37.7636 25.1964C34.4653 25.2005 34.4005 25.2121 34.1595 25.8462C34.0796 26.0564 34.0337 28.0663 34.0337 31.3572V36.537L33.407 36.9431C33.0623 37.1665 32.5037 37.5951 32.1655 37.8957L31.5507 38.4422L31.4901 36.6511C31.4078 34.2137 31.704 34.3977 27.8594 34.3977C25.0096 34.3977 24.8453 34.4101 24.5421 34.6487L24.2229 34.8997V42.6933C24.2229 46.9798 24.2568 50.5751 24.2981 50.6829C24.4624 51.1111 24.9972 51.2334 26.7037 51.2334C28.1615 51.2334 28.357 51.2575 28.4223 51.4454C29.0235 53.1749 29.9691 54.7608 31.1546 56.0282L31.8822 56.8059L16.9397 56.7752L1.99728 56.7444L1.96627 29.4923C1.94919 14.5036 1.96106 2.17206 1.99268 2.08873C2.03834 1.96858 5.62642 1.93733 19.3743 1.93733H36.6983L36.6986 4.87451ZM40.5742 5.26815L42.3273 7.0244H40.5423H38.7574V5.26815C38.7574 4.30221 38.7717 3.5119 38.7892 3.5119C38.8068 3.5119 39.6099 4.30221 40.5742 5.26815ZM4.61021 5.52674C4.27035 5.95866 4.28864 6.48044 4.65648 6.84816C4.9307 7.1225 5.04346 7.14552 6.11538 7.14552C7.1873 7.14552 7.30006 7.1225 7.57428 6.84816C7.94212 6.48044 7.96041 5.95866 7.62054 5.52674C7.3783 5.21861 7.32598 5.20759 6.11538 5.20759C4.90478 5.20759 4.85245 5.21861 4.61021 5.52674ZM10.564 5.28862C10.3112 5.39036 10.0264 6.0587 10.104 6.36792C10.1435 6.5255 10.2945 6.76483 10.4395 6.89988C10.6985 7.14116 10.8361 7.14552 18.2839 7.14552C26.5409 7.14552 26.2622 7.16829 26.5271 6.47172C26.6632 6.11357 26.4611 5.48943 26.1561 5.32616C25.9289 5.20456 10.8629 5.16834 10.564 5.28862ZM4.73182 10.6082C4.16352 11.0864 4.22226 11.8507 4.85233 12.1765C5.31017 12.4133 6.92059 12.4133 7.37842 12.1765C8.00849 11.8507 8.06724 11.0864 7.49894 10.6082C7.16319 10.3257 7.02621 10.2947 6.11538 10.2947C5.20455 10.2947 5.06757 10.3257 4.73182 10.6082ZM10.7137 10.41C10.372 10.5484 10.1873 10.7978 10.0989 11.24C10.0363 11.5533 10.086 11.6797 10.3917 11.9855L10.7599 12.3537H18.3229C25.6824 12.3537 25.8941 12.3473 26.1915 12.1134C26.3595 11.9813 26.5315 11.7355 26.5737 11.5673C26.6748 11.1648 26.3563 10.5592 25.9655 10.4106C25.5894 10.2676 11.0664 10.2669 10.7137 10.41ZM4.65648 15.8002C4.27144 16.1851 4.2695 16.7174 4.65139 17.1615C4.93361 17.4896 4.98375 17.5013 6.09515 17.5013C7.14696 17.5013 7.27353 17.4759 7.55902 17.2077C7.97579 16.8163 7.98233 16.2081 7.57428 15.8002C7.30006 15.5259 7.1873 15.5028 6.11538 15.5028C5.04346 15.5028 4.9307 15.5259 4.65648 15.8002ZM10.3917 15.871C10.0822 16.1806 10.0358 16.3011 10.1011 16.6277C10.1439 16.8412 10.288 17.1252 10.4215 17.2587C10.6581 17.4955 10.8439 17.5022 18.1385 17.5344C23.7236 17.559 25.7013 17.5308 25.9623 17.4226C26.4013 17.2408 26.6917 16.6096 26.5311 16.187C26.2617 15.4786 26.5525 15.5028 18.3123 15.5028H10.7599L10.3917 15.871ZM36.3955 18.8344C36.3289 18.8575 35.7894 18.9134 35.1967 18.9583C34.2901 19.0271 34.0739 19.0853 33.8341 19.325C33.4631 19.696 33.4647 20.2359 33.8381 20.67C34.0786 20.9496 34.2146 21.0023 34.6499 20.985L35.1729 20.9642L31.3633 24.7707L27.5537 28.5772L22.8906 27.0674C20.3259 26.237 18.072 25.5572 17.8822 25.5567C17.613 25.5561 16.4207 26.4238 12.4626 29.5012C9.67172 31.6712 7.30624 33.5637 7.20607 33.7069C7.01446 33.9804 6.97267 34.3659 7.099 34.695C7.18911 34.93 7.76395 35.2455 8.10164 35.2455C8.23475 35.2455 10.5463 33.533 13.2385 31.44L18.1332 27.6344L22.9646 29.2023C25.9571 30.1736 27.8998 30.7451 28.0688 30.7042C28.2189 30.6679 30.1635 28.7997 32.3902 26.5527C36.1329 22.7756 36.4379 22.4965 36.4291 22.8544C36.4027 23.9291 37.6312 24.35 38.2036 23.4623C38.3502 23.2349 38.7574 20.4106 38.7574 19.6212C38.7574 19.4818 38.6235 19.234 38.46 19.0704C38.2002 18.8105 38.0591 18.7743 37.3397 18.7827C36.887 18.7879 36.4621 18.8112 36.3955 18.8344ZM4.65648 21.0084C4.46899 21.1957 4.35913 21.444 4.35913 21.68C4.35913 21.9159 4.46899 22.1642 4.65648 22.3516C4.9307 22.6259 5.04346 22.649 6.11538 22.649C7.1873 22.649 7.30006 22.6259 7.57428 22.3516C7.76177 22.1642 7.87163 21.9159 7.87163 21.68C7.87163 21.444 7.76177 21.1957 7.57428 21.0084C7.30006 20.734 7.1873 20.711 6.11538 20.711C5.04346 20.711 4.9307 20.734 4.65648 21.0084ZM10.5219 20.833C10.4141 20.896 10.2576 21.1123 10.1741 21.3137C9.99645 21.7426 10.1769 22.3355 10.5449 22.5324C10.6776 22.6035 13.7352 22.649 18.3801 22.649H25.9974L26.281 22.3471C26.6499 21.9544 26.6499 21.4055 26.281 21.0129L25.9974 20.711L18.3578 20.7147C13.7821 20.717 10.6394 20.7643 10.5219 20.833ZM39.363 30.9906V34.8509L38.6467 34.9319C38.2527 34.9765 37.5448 35.1198 37.0736 35.2503C36.6024 35.3809 36.189 35.4877 36.1549 35.4877C36.1207 35.4877 36.0927 33.6073 36.0927 31.3091V27.1304H37.7279H39.363V30.9906ZM15.0783 32.1801C14.9451 32.214 14.7135 32.3547 14.5635 32.4929L14.291 32.7442V41.6156C14.291 46.4948 14.3249 50.5751 14.3662 50.6829C14.5503 51.1627 15.0076 51.2334 17.9246 51.2334C20.8417 51.2334 21.2989 51.1627 21.483 50.6829C21.5243 50.5751 21.5583 46.4948 21.5583 41.6156V32.7442L21.2459 32.4505C20.9353 32.1585 20.9185 32.1568 18.127 32.1377C16.5835 32.127 15.2115 32.1461 15.0783 32.1801ZM19.6203 41.6649V49.1744H17.9246H16.2289V41.6649V34.1554H17.9246H19.6203V41.6649ZM29.5253 38.6369L29.559 40.8776L29.0184 42.0282C28.0897 44.0053 27.627 46.3461 27.7915 48.2357L27.8731 49.1744H27.017H26.1608V42.7516V36.3288L27.8262 36.3625L29.4917 36.3961L29.5253 38.6369ZM42.1423 36.9486C46.266 37.6176 49.6673 40.7459 50.7601 44.8746C51.1231 46.2463 51.1281 48.4722 50.7716 49.9264C49.8141 53.8316 46.8026 56.8428 42.9008 57.7965C41.4133 58.1599 39.3205 58.1575 37.9095 57.7906C33.0691 56.5318 29.8 52.3497 29.7954 47.4101C29.7912 42.9385 32.6739 38.8989 36.9379 37.401C38.4889 36.856 40.4965 36.6815 42.1423 36.9486ZM38.6761 38.2108C38.5352 38.3095 38.3255 38.6531 38.2099 38.9743C38.0138 39.5195 37.9518 39.5771 37.2796 39.8378L36.5593 40.1171L35.9016 39.8654C35.5399 39.727 35.1488 39.6467 35.0326 39.6869C34.7278 39.7921 32.822 41.6749 32.6947 41.9965C32.6186 42.1886 32.6603 42.4582 32.8377 42.9218L33.0881 43.576L32.8039 44.3029C32.5393 44.9796 32.4798 45.044 31.9422 45.2376C31.0723 45.5508 31.0057 45.7106 31.0057 47.4845C31.0057 48.9196 31.0223 49.0266 31.2835 49.2721C31.4364 49.4156 31.7757 49.6074 32.0376 49.698C32.4558 49.8428 32.5483 49.9488 32.7978 50.5694C32.954 50.9581 33.0543 51.3618 33.0206 51.4667C32.9871 51.5716 32.8805 51.8717 32.784 52.1337C32.532 52.8169 32.6786 53.1091 33.8438 54.2464C34.9596 55.3355 35.105 55.3855 36.0165 54.9948L36.5662 54.7592L37.2877 55.0706C37.9273 55.3465 38.0323 55.4421 38.2112 55.9105C38.5535 56.8069 38.8124 56.9261 40.4168 56.9261C41.1783 56.9261 41.9093 56.8683 42.0412 56.7977C42.1731 56.7271 42.4284 56.3667 42.6085 55.997C42.9073 55.3835 42.9981 55.2997 43.6444 55.0388L44.3525 54.7531L44.8204 54.9917C45.6551 55.4175 45.8329 55.3475 47.0774 54.103C48.3219 52.8585 48.3919 52.6807 47.9661 51.846L47.7274 51.3782L48.0132 50.67C48.2741 50.0237 48.3579 49.9329 48.9714 49.6341C49.3411 49.454 49.7015 49.1987 49.7721 49.0668C49.8427 48.9349 49.9005 48.2039 49.9005 47.4425C49.9005 45.838 49.7813 45.5791 48.8849 45.2369C48.4165 45.058 48.3209 44.9529 48.045 44.3133L47.7336 43.5918L47.9692 43.0421C48.3599 42.1306 48.3099 41.9853 47.2208 40.8694C46.0835 39.7042 45.7913 39.5576 45.1081 39.8096C44.8461 39.9061 44.546 40.0127 44.4411 40.0462C44.3362 40.0799 43.9325 39.9796 43.5438 39.8234C42.9232 39.5739 42.8172 39.4814 42.6724 39.0632C42.5818 38.8014 42.39 38.462 42.2465 38.3091C42.001 38.0479 41.894 38.0313 40.4589 38.0313C39.3064 38.0313 38.8697 38.0752 38.6761 38.2108ZM4.88177 38.88C4.7363 38.9386 4.5591 39.0951 4.48812 39.2277C4.40225 39.3883 4.35913 41.3289 4.35913 45.0375V50.6062L4.73182 50.9198L5.10439 51.2334H7.93364C9.51451 51.2334 10.9024 51.1804 11.0793 51.113C11.7377 50.8628 11.7603 50.6386 11.7219 44.7354L11.6869 39.3424L11.3471 39.0503C11.0076 38.7582 11.0048 38.758 8.07681 38.7656C6.46505 38.7699 5.02735 38.8213 4.88177 38.88ZM41.0616 40.4624C41.2311 40.9764 41.6752 41.4226 42.0171 41.4226C42.1266 41.4226 42.6142 41.6134 43.1008 41.8466C44.1025 42.3267 44.242 42.3451 44.8745 42.0808C45.3196 41.8948 45.3352 41.8976 45.6708 42.219C45.9995 42.534 46.0058 42.5611 45.8288 42.9035C45.578 43.3883 45.5837 43.8293 45.8471 44.3317C45.9688 44.5637 46.2086 45.135 46.3802 45.6013C46.6684 46.3845 46.736 46.4709 47.2668 46.7345C47.8019 47.0004 47.8414 47.0516 47.8414 47.4822C47.8414 47.8992 47.8017 47.9575 47.4353 48.0783C46.8842 48.2603 46.5841 48.6251 46.3343 49.4166C46.2188 49.783 46.02 50.2527 45.8927 50.4604C45.6173 50.9098 45.5977 51.419 45.8341 51.9765C45.9982 52.3632 45.9911 52.4008 45.6956 52.7116C45.3959 53.027 45.3689 53.0325 44.963 52.863C44.39 52.6235 43.886 52.6418 43.4348 52.9183C43.2271 53.0456 42.7574 53.2444 42.391 53.3599C41.5995 53.6097 41.2347 53.9098 41.0527 54.4609C40.9319 54.8273 40.8736 54.867 40.4566 54.867C40.026 54.867 39.9748 54.8275 39.7089 54.2924C39.4453 53.7616 39.3589 53.694 38.5757 53.4058C38.1094 53.2342 37.5381 52.9944 37.3061 52.8727C36.8037 52.6093 36.3627 52.6036 35.8779 52.8544C35.5355 53.0314 35.5084 53.0252 35.1934 52.6964C34.872 52.3608 34.8692 52.3452 35.0552 51.9001C35.3195 51.2676 35.3011 51.1282 34.821 50.1264C34.5878 49.6398 34.397 49.1522 34.397 49.0427C34.397 48.7008 33.9508 48.2568 33.4368 48.0872C32.9793 47.9361 32.9436 47.8922 32.9436 47.4809C32.9436 47.0666 32.9831 47.0195 33.5417 46.7671C34.0602 46.5327 34.167 46.4213 34.3454 45.928C34.4587 45.6151 34.7181 44.9854 34.922 44.5287L35.2926 43.6983L35.0762 43.0888L34.8597 42.4794L35.17 42.1692C35.4765 41.8628 35.4855 41.8615 35.9117 42.0647C36.4935 42.3422 36.6662 42.3273 37.5629 41.9229C37.9867 41.7317 38.5895 41.4831 38.9024 41.3703C39.3959 41.1924 39.507 41.0862 39.7415 40.5673C39.9939 40.0087 40.041 39.9692 40.4552 39.9692C40.8666 39.9692 40.9105 40.0049 41.0616 40.4624ZM9.68844 44.9957V49.1744H7.99275H6.29706V44.9957V40.817H7.99275H9.68844V44.9957ZM38.7972 42.747C37.5315 43.2026 36.4893 44.1574 35.8846 45.4151C35.4268 46.3675 35.3495 48.0821 35.7202 49.066C36.1042 50.0857 36.6626 50.8443 37.4622 51.4329C40.0513 53.3389 43.5735 52.4057 44.9711 49.4436C45.3134 48.7185 45.3555 48.51 45.3569 47.5392C45.3588 46.2134 45.1234 45.4601 44.4015 44.4812C43.8169 43.6884 43.2073 43.2276 42.1893 42.8091C41.279 42.4347 39.7426 42.4066 38.7972 42.747ZM41.7396 44.7931C42.3435 45.1042 42.934 45.7227 43.1721 46.2939C43.5723 47.2531 43.3047 48.7512 42.5954 49.5234C41.8937 50.2876 40.2716 50.6163 39.2683 50.1977C37.3541 49.3994 36.856 46.8301 38.3298 45.3563C39.2241 44.462 40.6425 44.2278 41.7396 44.7931Z" fill="#F08178"/>
</svg>
