<svg width="122" height="34" viewBox="0 0 122 34" fill="none" xmlns="http://www.w3.org/2000/svg">
<g clip-path="url(#clip0_204_448)">
<path d="M6.08005 22V3.12996L8.63005 5.58996H2.18005V0.999956H12.0201V22H6.08005ZM24.4483 22.42C22.6483 22.42 21.0483 21.99 19.6483 21.13C18.2683 20.27 17.1783 19.03 16.3783 17.41C15.5783 15.79 15.1783 13.82 15.1783 11.5C15.1783 9.17996 15.5783 7.20996 16.3783 5.58996C17.1783 3.96996 18.2683 2.72996 19.6483 1.86996C21.0483 1.00996 22.6483 0.579956 24.4483 0.579956C26.2283 0.579956 27.8083 1.00996 29.1883 1.86996C30.5883 2.72996 31.6883 3.96996 32.4883 5.58996C33.2883 7.20996 33.6883 9.17996 33.6883 11.5C33.6883 13.82 33.2883 15.79 32.4883 17.41C31.6883 19.03 30.5883 20.27 29.1883 21.13C27.8083 21.99 26.2283 22.42 24.4483 22.42ZM24.4483 17.56C25.0883 17.56 25.6483 17.36 26.1283 16.96C26.6283 16.56 27.0183 15.92 27.2983 15.04C27.5783 14.14 27.7183 12.96 27.7183 11.5C27.7183 10.02 27.5783 8.83996 27.2983 7.95996C27.0183 7.07996 26.6283 6.43996 26.1283 6.03996C25.6483 5.63996 25.0883 5.43996 24.4483 5.43996C23.8083 5.43996 23.2383 5.63996 22.7383 6.03996C22.2583 6.43996 21.8683 7.07996 21.5683 7.95996C21.2883 8.83996 21.1483 10.02 21.1483 11.5C21.1483 12.96 21.2883 14.14 21.5683 15.04C21.8683 15.92 22.2583 16.56 22.7383 16.96C23.2383 17.36 23.8083 17.56 24.4483 17.56ZM43.3954 0.579956C45.3754 0.579956 47.0854 0.969956 48.5254 1.74996C49.9854 2.52996 51.1154 3.68996 51.9154 5.22996C52.7354 6.74996 53.1454 8.64996 53.1454 10.93C53.1454 13.37 52.6654 15.45 51.7054 17.17C50.7654 18.87 49.4554 20.17 47.7754 21.07C46.1154 21.97 44.1754 22.42 41.9554 22.42C40.7954 22.42 39.6754 22.28 38.5954 22C37.5154 21.74 36.5854 21.37 35.8054 20.89L37.9654 16.63C38.5654 17.05 39.1854 17.34 39.8254 17.5C40.4854 17.64 41.1554 17.71 41.8354 17.71C43.4554 17.71 44.7454 17.22 45.7054 16.24C46.6654 15.26 47.1454 13.83 47.1454 11.95C47.1454 11.61 47.1454 11.26 47.1454 10.9C47.1454 10.52 47.1154 10.14 47.0554 9.75996L48.5254 10.99C48.1654 11.73 47.6954 12.35 47.1154 12.85C46.5354 13.35 45.8554 13.73 45.0754 13.99C44.2954 14.25 43.4054 14.38 42.4054 14.38C41.0854 14.38 39.8754 14.11 38.7754 13.57C37.6954 13.01 36.8254 12.24 36.1654 11.26C35.5054 10.26 35.1754 9.08996 35.1754 7.74996C35.1754 6.28996 35.5454 5.02996 36.2854 3.96996C37.0254 2.88996 38.0154 2.05996 39.2554 1.47996C40.4954 0.879956 41.8754 0.579956 43.3954 0.579956ZM43.7854 4.80996C43.2254 4.80996 42.7354 4.91996 42.3154 5.13996C41.8954 5.35996 41.5554 5.66996 41.2954 6.06996C41.0554 6.44996 40.9354 6.91996 40.9354 7.47996C40.9354 8.27996 41.1954 8.91996 41.7154 9.39996C42.2554 9.87996 42.9554 10.12 43.8154 10.12C44.3954 10.12 44.9054 10.01 45.3454 9.78996C45.7854 9.56996 46.1254 9.25996 46.3654 8.85996C46.6054 8.45996 46.7254 7.98996 46.7254 7.44996C46.7254 6.92996 46.6054 6.47996 46.3654 6.09996C46.1254 5.69996 45.7854 5.38996 45.3454 5.16996C44.9054 4.92996 44.3854 4.80996 43.7854 4.80996ZM62.8778 0.579956C64.8578 0.579956 66.5678 0.969956 68.0078 1.74996C69.4678 2.52996 70.5978 3.68996 71.3978 5.22996C72.2178 6.74996 72.6278 8.64996 72.6278 10.93C72.6278 13.37 72.1478 15.45 71.1878 17.17C70.2478 18.87 68.9378 20.17 67.2578 21.07C65.5978 21.97 63.6578 22.42 61.4378 22.42C60.2778 22.42 59.1578 22.28 58.0778 22C56.9978 21.74 56.0678 21.37 55.2878 20.89L57.4478 16.63C58.0478 17.05 58.6678 17.34 59.3078 17.5C59.9678 17.64 60.6378 17.71 61.3178 17.71C62.9378 17.71 64.2278 17.22 65.1878 16.24C66.1478 15.26 66.6278 13.83 66.6278 11.95C66.6278 11.61 66.6278 11.26 66.6278 10.9C66.6278 10.52 66.5978 10.14 66.5378 9.75996L68.0078 10.99C67.6478 11.73 67.1778 12.35 66.5978 12.85C66.0178 13.35 65.3378 13.73 64.5578 13.99C63.7778 14.25 62.8878 14.38 61.8878 14.38C60.5678 14.38 59.3578 14.11 58.2578 13.57C57.1778 13.01 56.3078 12.24 55.6478 11.26C54.9878 10.26 54.6578 9.08996 54.6578 7.74996C54.6578 6.28996 55.0278 5.02996 55.7678 3.96996C56.5078 2.88996 57.4978 2.05996 58.7378 1.47996C59.9778 0.879956 61.3578 0.579956 62.8778 0.579956ZM63.2678 4.80996C62.7078 4.80996 62.2178 4.91996 61.7978 5.13996C61.3778 5.35996 61.0378 5.66996 60.7778 6.06996C60.5378 6.44996 60.4178 6.91996 60.4178 7.47996C60.4178 8.27996 60.6778 8.91996 61.1978 9.39996C61.7378 9.87996 62.4378 10.12 63.2978 10.12C63.8778 10.12 64.3878 10.01 64.8278 9.78996C65.2678 9.56996 65.6078 9.25996 65.8478 8.85996C66.0878 8.45996 66.2078 7.98996 66.2078 7.44996C66.2078 6.92996 66.0878 6.47996 65.8478 6.09996C65.6078 5.69996 65.2678 5.38996 64.8278 5.16996C64.3878 4.92996 63.8678 4.80996 63.2678 4.80996Z" fill="#F08178"/>
<path d="M3.28906 30.627C3.28906 30.4023 3.33789 30.0898 3.43555 29.6895C3.5332 29.2793 3.66504 28.9619 3.83105 28.7373C4.25098 28.1416 4.63672 27.5947 4.98828 27.0967C5.33984 26.5986 5.65234 26.1689 5.92578 25.8076C6.19922 25.4463 6.47266 25.124 6.74609 24.8408C8.41602 23.0342 9.6123 21.6865 10.335 20.7979C11.0576 19.8994 11.4189 19.2744 11.4189 18.9229C11.4189 18.6885 11.3115 18.5078 11.0967 18.3809C10.8818 18.2441 10.5986 18.1758 10.2471 18.1758C9.52441 18.1758 8.61621 18.4346 7.52246 18.9521C6.42871 19.46 5.14941 20.124 3.68457 20.9443C2.22949 21.7646 1.41895 22.1748 1.25293 22.1748C0.989258 22.1748 0.857422 21.9844 0.857422 21.6035C0.857422 21.2812 0.959961 20.8223 1.16504 20.2266C1.32129 19.582 1.44824 19.084 1.5459 18.7324C1.64355 18.3711 1.80469 18.0488 2.0293 17.7656C2.26367 17.4824 2.64453 17.1748 3.17188 16.8428C3.70898 16.5107 4.5293 16.0566 5.63281 15.4805L5.7793 16.0225C6.69727 15.6514 7.56152 15.3682 8.37207 15.1729C9.19238 14.9775 9.89062 14.8799 10.4668 14.8799C11.5996 14.8799 12.4004 15.0752 12.8691 15.4658C13.3477 15.8467 13.5869 16.6816 13.5869 17.9707C13.5869 18.6738 13.4844 19.2598 13.2793 19.7285C13.0742 20.1973 12.6738 20.8516 12.0781 21.6914C10.7207 23.6641 9.7002 25.0312 9.0166 25.793C7.03418 28.0586 6.04297 29.3818 6.04297 29.7627C6.04297 29.9775 6.18457 30.085 6.46777 30.085C6.70215 30.085 7.03418 29.9189 7.46387 29.5869C7.89355 29.2549 8.41113 28.7764 9.0166 28.1514C9.62207 27.5264 10.4619 26.6328 11.5361 25.4707C12.6787 24.2402 13.6406 23.1562 14.4219 22.2188C15.2129 21.2715 15.8623 20.4658 16.3701 19.8018C16.8779 19.1279 17.1465 18.7666 17.1758 18.7178C17.7031 18.0732 18.2451 17.5459 18.8018 17.1357C19.3682 16.7158 19.7295 16.5059 19.8857 16.5059C20.0029 16.5059 20.1396 16.6133 20.2959 16.8281C20.4521 17.043 20.584 17.2969 20.6914 17.5898C20.8086 17.8828 20.8672 18.1074 20.8672 18.2637C20.8672 18.3125 20.75 18.5518 20.5156 18.9814C20.2812 19.4014 20.0273 19.8408 19.7539 20.2998C19.4805 20.749 19.041 21.4424 18.4355 22.3799C17.1074 24.4404 16.0918 26.1738 15.3887 27.5801C14.6855 28.9766 14.334 29.8945 14.334 30.334C14.334 30.4902 14.3877 30.6367 14.4951 30.7734C14.6123 30.9004 14.7295 30.9639 14.8467 30.9639C15.0029 30.9639 15.2861 30.8418 15.6963 30.5977C16.1064 30.3438 16.5605 29.9824 17.0586 29.5137C17.7129 28.8887 18.3086 28.2393 18.8457 27.5654C19.3828 26.8916 19.915 26.1396 20.4424 25.3096C20.9697 24.4795 21.4385 23.6934 21.8486 22.9512C22.2588 22.209 22.6738 21.4277 23.0938 20.6074L22.8447 19.8604C22.8057 19.7432 22.7861 19.5918 22.7861 19.4062C22.7861 19.2598 23.0742 18.7861 23.6504 17.9854C24.2266 17.1748 24.6074 16.7695 24.793 16.7695C24.998 16.7695 25.1689 16.9209 25.3057 17.2236C25.4521 17.5166 25.5254 17.8145 25.5254 18.1172C25.5254 18.4492 25.374 19.1133 25.0713 20.1094C24.7783 21.0957 24.3145 22.292 23.6797 23.6982C23.0547 25.1045 22.2783 26.5352 21.3506 27.9902C20.5498 29.2598 19.6904 30.3486 18.7725 31.2568C17.8643 32.1553 17.0439 32.8242 16.3115 33.2637C15.5791 33.7031 15.0371 33.9229 14.6855 33.9229C14.2852 33.9229 13.8652 33.7471 13.4258 33.3955C13.0645 33.083 12.8057 32.8047 12.6494 32.5605C12.5029 32.3066 12.4053 32.0332 12.3564 31.7402C12.3076 31.4473 12.2832 31.1055 12.2832 30.7148C12.2832 29.8848 12.5127 28.9131 12.9717 27.7998C13.4307 26.6865 14.1143 25.2998 15.0225 23.6396C12.1807 27.0967 9.97852 29.6113 8.41602 31.1836C6.86328 32.7559 5.72559 33.542 5.00293 33.542C4.52441 33.542 4.11914 33.2588 3.78711 32.6924C3.45508 32.1162 3.28906 31.4277 3.28906 30.627ZM32.9814 28.3564V29.3379C32.3369 29.9238 31.8193 30.3145 31.4287 30.5098C31.0381 30.7051 30.4766 30.7832 29.7441 30.7441C28.4746 32.248 27.3564 33 26.3896 33C25.8428 33 25.3447 32.8193 24.8955 32.458C24.4463 32.0967 24.085 31.6035 23.8115 30.9785C23.5479 30.3535 23.416 29.6553 23.416 28.8838C23.416 28.2588 23.6211 27.5654 24.0312 26.8037C24.4512 26.042 24.9883 25.334 25.6426 24.6797C26.3066 24.0156 27.0146 23.4834 27.7666 23.083C28.5186 22.6729 29.2168 22.4678 29.8613 22.4678C30.3203 22.4678 30.6816 22.541 30.9453 22.6875C31.209 22.8242 31.3408 23.0195 31.3408 23.2734C31.3408 23.4688 31.2285 23.6934 31.0039 23.9473C31.375 24.0254 31.6289 24.1572 31.7656 24.3428C31.9023 24.5186 31.9707 24.8457 31.9707 25.3242C31.9707 25.793 31.8584 26.3838 31.6338 27.0967C31.4189 27.8096 31.1211 28.4785 30.7402 29.1035L31.0039 29.3672H31.2236C31.3896 29.3672 31.5508 29.3281 31.707 29.25C31.873 29.1621 32.0195 29.0742 32.1465 28.9863C32.2734 28.8887 32.5518 28.6787 32.9814 28.3564ZM29.9639 24.5039C29.1533 24.9922 28.46 25.4365 27.8838 25.8369C27.3076 26.2275 26.8193 26.6279 26.4189 27.0381C26.0186 27.4385 25.75 27.8438 25.6133 28.2539C25.3691 29.3477 25.2471 29.9385 25.2471 30.0264C25.2471 30.6709 25.6963 30.9932 26.5947 30.9932C27.0146 30.9932 27.7178 30.6318 28.7041 29.9092C28.5381 29.4502 28.4551 29.0107 28.4551 28.5908C28.4551 27.9756 28.582 27.3506 28.8359 26.7158C29.0898 26.0713 29.4658 25.334 29.9639 24.5039ZM32.8203 29.5137V28.5615C33.3477 27.9365 33.748 27.4043 34.0215 26.9648C33.709 26.8574 33.4795 26.7256 33.333 26.5693C33.1963 26.4131 33.1279 26.1787 33.1279 25.8662C33.1279 25.5146 33.2744 25.0703 33.5674 24.5332C33.8604 23.9961 34.2217 23.4932 34.6514 23.0244C35.0811 22.5557 35.4717 22.2529 35.8232 22.1162C35.96 22.0479 36.0918 22.0137 36.2188 22.0137C36.4141 22.0137 36.5117 22.1064 36.5117 22.292C36.5117 22.458 36.3604 22.7949 36.0576 23.3027C38.0693 22.9902 39.3389 22.834 39.8662 22.834C40.0713 22.834 40.2129 22.8535 40.291 22.8926C40.457 22.9805 40.5938 23.1855 40.7012 23.5078C40.8086 23.8301 40.8623 24.1523 40.8623 24.4746C40.8623 24.6797 40.7695 24.9043 40.584 25.1484C40.4082 25.3828 40.1006 25.7295 39.6611 26.1885C39.1436 26.7451 38.709 27.3506 38.3574 28.0049C38.0059 28.6592 37.8301 29.1523 37.8301 29.4844C37.8301 29.9434 38.1133 30.1729 38.6797 30.1729C39.2754 30.1729 40.3105 29.5674 41.7852 28.3564V29.3379C40.9746 30.1875 40.3057 30.8564 39.7783 31.3447C39.251 31.833 38.7627 32.2236 38.3135 32.5166C37.8643 32.7998 37.4639 32.9414 37.1123 32.9414C36.7021 32.9414 36.3604 32.7559 36.0869 32.3848C35.8135 32.0039 35.6768 31.457 35.6768 30.7441C35.6768 30.3242 35.7842 29.8457 35.999 29.3086C36.2139 28.7715 36.5264 28.1904 36.9365 27.5654C37.3564 26.9307 37.8252 26.3008 38.3428 25.6758C38.0693 25.7344 37.7617 25.7979 37.4199 25.8662C37.0781 25.9248 36.7168 25.9883 36.3359 26.0566C35.9551 26.125 35.6621 26.1787 35.457 26.2178C34.8516 27.4287 33.9727 28.5273 32.8203 29.5137ZM52.7715 28.3857V29.3672C51.6777 30.6465 50.7598 31.6182 50.0176 32.2822C49.2754 32.9365 48.6553 33.2637 48.1572 33.2637C47.6787 33.2637 47.2441 33.1221 46.8535 32.8389C46.4727 32.5557 46.126 32.165 45.8135 31.667C45.5107 31.1689 45.1494 30.4756 44.7295 29.5869C44.2314 30.2021 43.7822 30.7783 43.3818 31.3154C42.9814 31.8428 42.7031 32.1943 42.5469 32.3701C42.3906 32.5459 42.249 32.6338 42.1221 32.6338C41.8584 32.6338 41.668 32.4678 41.5508 32.1357C41.4336 31.7939 41.375 31.3008 41.375 30.6562C41.375 29.7773 41.4775 28.9326 41.6826 28.1221C41.8975 27.3018 42.2002 26.5059 42.5908 25.7344C42.9912 24.9629 43.499 24.1328 44.1143 23.2441C44.7393 22.3457 45.4375 21.4082 46.209 20.4316C47.2734 19.084 48.1914 17.9854 48.9629 17.1357C49.7344 16.2764 50.4033 15.6318 50.9697 15.2021C51.5459 14.7627 52.0244 14.543 52.4053 14.543C52.874 14.543 53.1084 14.7529 53.1084 15.1729C53.1084 15.5342 52.2441 16.8379 50.5156 19.084C48.7871 21.3203 46.2676 24.377 42.957 28.2539V29.5137C45.1738 27.1406 46.9561 25.3779 48.3037 24.2256C49.6611 23.0732 50.7109 22.4971 51.4531 22.4971C51.7559 22.4971 51.9902 22.6777 52.1562 23.0391C52.3223 23.3906 52.4053 23.8008 52.4053 24.2695C52.4053 25.2266 51.9951 26.1152 51.1748 26.9355C50.3545 27.7461 49.0947 28.6787 47.3955 29.7334C47.6885 30.1729 47.9473 30.4951 48.1719 30.7002C48.3965 30.8955 48.6797 30.9932 49.0215 30.9932C49.3242 30.9932 49.6514 30.8906 50.0029 30.6855C50.3545 30.4805 50.7109 30.2217 51.0723 29.9092C51.4434 29.5967 52.0098 29.0889 52.7715 28.3857ZM46.9854 29.1328C47.3564 28.8887 47.8154 28.5127 48.3623 28.0049C48.9189 27.4873 49.3926 26.9551 49.7832 26.4082C50.1738 25.8516 50.3691 25.3877 50.3691 25.0166C50.3691 24.8604 50.3008 24.7822 50.1641 24.7822C49.793 24.7822 49.1533 25.1387 48.2451 25.8516C47.3467 26.5645 46.4678 27.4775 45.6084 28.5908C45.9795 28.5908 46.4385 28.7715 46.9854 29.1328ZM55.0273 28.9131V29.2793C55.0273 29.8555 55.1689 30.3047 55.4521 30.627C55.7354 30.9492 56.1064 31.1104 56.5654 31.1104C57.0439 31.1104 57.5371 30.998 58.0449 30.7734C58.5625 30.5488 59.0752 30.251 59.583 29.8799C60.0908 29.5088 60.7109 29.0107 61.4434 28.3857V29.2793C60.3398 30.6074 59.3047 31.6279 58.3379 32.3408C57.3711 33.0439 56.3896 33.3955 55.3936 33.3955C54.5244 33.3955 53.8359 33.0586 53.3281 32.3848C52.8203 31.7109 52.5664 30.7881 52.5664 29.6162C52.5664 28.5908 52.8057 27.6631 53.2842 26.833C53.7627 25.9932 54.5439 25.1094 55.6279 24.1816C56.3701 23.5469 57.1074 23.0684 57.8398 22.7461C58.5723 22.4238 59.2266 22.2627 59.8027 22.2627C60.2617 22.2627 60.623 22.3701 60.8867 22.585C61.1602 22.79 61.2969 23.1025 61.2969 23.5225C61.2969 24.1377 61.0674 24.7529 60.6084 25.3682C60.1494 25.9736 59.4463 26.5791 58.499 27.1846C57.5615 27.7803 56.4043 28.3564 55.0273 28.9131ZM55.1738 27.9609C56.0527 27.6191 56.8047 27.1943 57.4297 26.6865C58.0547 26.1787 58.5137 25.6953 58.8066 25.2363C59.1094 24.7676 59.2607 24.4258 59.2607 24.2109C59.2607 23.9863 59.1582 23.874 58.9531 23.874C58.7773 23.874 58.4893 23.9863 58.0889 24.2109C57.6982 24.4355 57.2979 24.7285 56.8877 25.0898C56.4873 25.4512 56.126 25.876 55.8037 26.3643C55.4814 26.8525 55.2715 27.3848 55.1738 27.9609ZM61.2969 29.5137V28.5615C61.8242 27.9365 62.2246 27.4043 62.498 26.9648C62.1855 26.8574 61.9561 26.7256 61.8096 26.5693C61.6729 26.4131 61.6045 26.1787 61.6045 25.8662C61.6045 25.5146 61.751 25.0703 62.0439 24.5332C62.3369 23.9961 62.6982 23.4932 63.1279 23.0244C63.5576 22.5557 63.9482 22.2529 64.2998 22.1162C64.4365 22.0479 64.5684 22.0137 64.6953 22.0137C64.8906 22.0137 64.9883 22.1064 64.9883 22.292C64.9883 22.458 64.8369 22.7949 64.5342 23.3027C66.5459 22.9902 67.8154 22.834 68.3428 22.834C68.5479 22.834 68.6895 22.8535 68.7676 22.8926C68.9336 22.9805 69.0703 23.1855 69.1777 23.5078C69.2852 23.8301 69.3389 24.1523 69.3389 24.4746C69.3389 24.6797 69.2461 24.9043 69.0605 25.1484C68.8848 25.3828 68.5771 25.7295 68.1377 26.1885C67.6201 26.7451 67.1855 27.3506 66.834 28.0049C66.4824 28.6592 66.3066 29.1523 66.3066 29.4844C66.3066 29.9434 66.5898 30.1729 67.1562 30.1729C67.752 30.1729 68.7871 29.5674 70.2617 28.3564V29.3379C69.4512 30.1875 68.7822 30.8564 68.2549 31.3447C67.7275 31.833 67.2393 32.2236 66.79 32.5166C66.3408 32.7998 65.9404 32.9414 65.5889 32.9414C65.1787 32.9414 64.8369 32.7559 64.5635 32.3848C64.29 32.0039 64.1533 31.457 64.1533 30.7441C64.1533 30.3242 64.2607 29.8457 64.4756 29.3086C64.6904 28.7715 65.0029 28.1904 65.4131 27.5654C65.833 26.9307 66.3018 26.3008 66.8193 25.6758C66.5459 25.7344 66.2383 25.7979 65.8965 25.8662C65.5547 25.9248 65.1934 25.9883 64.8125 26.0566C64.4316 26.125 64.1387 26.1787 63.9336 26.2178C63.3281 27.4287 62.4492 28.5273 61.2969 29.5137ZM70.1445 28.7959V28.4443C72.6641 25.7881 74.3975 23.9277 75.3447 22.8633C75.5596 21.6621 76.0771 21.0615 76.8975 21.0615C77.1025 21.0615 77.3223 21.1201 77.5566 21.2373L77.6445 21.5156C77.6055 21.6328 77.5859 21.7988 77.5859 22.0137C77.5859 22.1992 77.6543 22.5459 77.791 23.0537C77.9375 23.5518 78.0498 23.9717 78.1279 24.3135C78.2061 24.6553 78.2451 25.041 78.2451 25.4707C78.2451 26.1152 78.0986 26.7354 77.8057 27.3311C77.5127 27.917 77.0879 28.4834 76.5312 29.0303C75.9746 29.5674 75.2568 30.1191 74.3779 30.6855C74.7295 30.7441 75.0078 30.7734 75.2129 30.7734C75.6133 30.7734 76.043 30.6758 76.502 30.4805C76.9707 30.2754 77.4443 30.0068 77.9229 29.6748C78.4111 29.333 78.9775 28.8936 79.6221 28.3564V29.3379C78.3721 30.5586 77.2539 31.4863 76.2676 32.1211C75.2812 32.7461 74.4316 33.0586 73.7188 33.0586C72.8008 33.0586 71.9512 32.668 71.1699 31.8867C70.7109 31.418 70.4229 30.9688 70.3057 30.5391C70.1982 30.1094 70.1445 29.5283 70.1445 28.7959ZM75.6084 26.5547L75.3447 24.416C74.7393 25.0996 73.4453 26.4131 71.4629 28.3564C72.0488 28.4834 72.4492 28.6543 72.6641 28.8691C72.8789 29.084 73.1816 29.499 73.5723 30.1143C74.2363 29.8408 74.7441 29.4697 75.0957 29.001C75.457 28.5225 75.6377 27.873 75.6377 27.0527C75.6377 26.9551 75.6328 26.8672 75.623 26.7891C75.623 26.7109 75.6182 26.6328 75.6084 26.5547ZM81.6582 33.0586C81.4922 33.0586 81.3506 32.9951 81.2334 32.8682C81.1162 32.7412 81.0576 32.5654 81.0576 32.3408C81.0576 32.165 81.1602 31.8525 81.3652 31.4033C81.5801 30.9443 81.8438 30.5391 82.1562 30.1875C82.4785 29.8262 82.8105 29.6455 83.1523 29.6455C83.5723 29.6455 83.7822 29.8945 83.7822 30.3926C83.7822 30.666 83.6699 31.0225 83.4453 31.4619C83.2207 31.8916 82.9424 32.2676 82.6104 32.5898C82.2783 32.9023 81.9609 33.0586 81.6582 33.0586Z" fill="#272727"/>
<path d="M95.0527 28.415V29.3965C94.0078 30.4219 93.1533 31.2178 92.4893 31.7842C91.835 32.3506 91.2197 32.79 90.6436 33.1025C90.0771 33.415 89.5205 33.5713 88.9736 33.5713C88.4365 33.5713 87.9434 33.3613 87.4941 32.9414C87.0449 32.5117 86.6934 31.9551 86.4395 31.2715C86.1855 30.5781 86.0586 29.8457 86.0586 29.0742C86.0586 28.4102 86.2051 27.8193 86.498 27.3018C86.791 26.7842 87.3574 26.1152 88.1973 25.2949C89.1934 24.3184 90.1162 23.5664 90.9658 23.0391C91.8252 22.502 92.499 22.2334 92.9873 22.2334C93.3389 22.2334 93.6367 22.3555 93.8809 22.5996C94.125 22.8438 94.2471 23.1514 94.2471 23.5225C94.2471 23.835 94.0859 24.2793 93.7637 24.8555C93.4414 25.4316 93.0801 25.9346 92.6797 26.3643C92.2793 26.7842 91.9619 26.9941 91.7275 26.9941C91.4736 26.9941 91.3467 26.8574 91.3467 26.584C91.3564 26.5059 91.3613 26.4326 91.3613 26.3643C91.3711 26.2959 91.376 26.2275 91.376 26.1592C91.376 26.042 91.332 25.9785 91.2441 25.9688C91.166 25.9492 91.0684 25.9834 90.9512 26.0713C89.9746 26.7549 89.3057 27.2383 88.9443 27.5215C88.583 27.7949 88.2949 28.0732 88.0801 28.3564C87.875 28.6396 87.7725 28.9375 87.7725 29.25C87.7725 29.8262 87.958 30.2949 88.3291 30.6562C88.7002 31.0176 89.1836 31.1982 89.7793 31.1982C90.3945 31.1982 91.1318 30.9639 91.9912 30.4951C92.8604 30.0166 93.8809 29.3232 95.0527 28.415ZM104.413 28.3564V29.3379C103.769 29.9238 103.251 30.3145 102.86 30.5098C102.47 30.7051 101.908 30.7832 101.176 30.7441C99.9062 32.248 98.7881 33 97.8213 33C97.2744 33 96.7764 32.8193 96.3271 32.458C95.8779 32.0967 95.5166 31.6035 95.2432 30.9785C94.9795 30.3535 94.8477 29.6553 94.8477 28.8838C94.8477 28.2588 95.0527 27.5654 95.4629 26.8037C95.8828 26.042 96.4199 25.334 97.0742 24.6797C97.7383 24.0156 98.4463 23.4834 99.1982 23.083C99.9502 22.6729 100.648 22.4678 101.293 22.4678C101.752 22.4678 102.113 22.541 102.377 22.6875C102.641 22.8242 102.772 23.0195 102.772 23.2734C102.772 23.4688 102.66 23.6934 102.436 23.9473C102.807 24.0254 103.061 24.1572 103.197 24.3428C103.334 24.5186 103.402 24.8457 103.402 25.3242C103.402 25.793 103.29 26.3838 103.065 27.0967C102.851 27.8096 102.553 28.4785 102.172 29.1035L102.436 29.3672H102.655C102.821 29.3672 102.982 29.3281 103.139 29.25C103.305 29.1621 103.451 29.0742 103.578 28.9863C103.705 28.8887 103.983 28.6787 104.413 28.3564ZM101.396 24.5039C100.585 24.9922 99.8916 25.4365 99.3154 25.8369C98.7393 26.2275 98.251 26.6279 97.8506 27.0381C97.4502 27.4385 97.1816 27.8438 97.0449 28.2539C96.8008 29.3477 96.6787 29.9385 96.6787 30.0264C96.6787 30.6709 97.1279 30.9932 98.0264 30.9932C98.4463 30.9932 99.1494 30.6318 100.136 29.9092C99.9697 29.4502 99.8867 29.0107 99.8867 28.5908C99.8867 27.9756 100.014 27.3506 100.268 26.7158C100.521 26.0713 100.897 25.334 101.396 24.5039ZM111.093 30.3926C112.44 29.2012 113.598 28.166 114.564 27.2871C115.531 26.3984 116.288 25.7002 116.835 25.1924C117.392 24.6846 117.88 24.2549 118.3 23.9033C118.72 23.5518 118.988 23.376 119.105 23.376C119.33 23.3662 119.545 23.6006 119.75 24.0791C119.955 24.5479 120.058 24.9238 120.058 25.207C120.058 25.3926 119.745 25.832 119.12 26.5254C118.505 27.209 118.041 27.7559 117.729 28.166C117.426 28.5762 117.274 29.0059 117.274 29.4551C117.274 29.7188 117.362 29.9336 117.538 30.0996C117.714 30.2559 117.924 30.334 118.168 30.334C118.451 30.334 118.788 30.1875 119.179 29.8945C119.579 29.6016 120.204 29.0791 121.054 28.3271V29.3672C120.204 30.168 119.433 30.8613 118.739 31.4473C118.046 32.0234 117.44 32.458 116.923 32.751C116.415 33.0342 115.99 33.1758 115.648 33.1758C115.346 33.1758 115.092 33.0635 114.887 32.8389C114.682 32.6045 114.579 32.3164 114.579 31.9746C114.579 31.6426 114.638 31.3057 114.755 30.9639C114.872 30.6221 115.053 30.2168 115.297 29.748C115.541 29.2793 115.863 28.7178 116.264 28.0635C116.664 27.3994 117.03 26.7939 117.362 26.2471C116.366 27.0576 115.482 27.8389 114.711 28.5908C113.939 29.3428 113.31 30.002 112.821 30.5684C112.333 31.125 111.947 31.5645 111.664 31.8867C111.117 32.4922 110.609 32.7949 110.141 32.7949C109.633 32.7949 109.379 32.4336 109.379 31.7109C109.379 31.418 109.569 30.8955 109.95 30.1436C110.331 29.3818 110.873 28.415 111.576 27.2432C111.635 27.165 111.664 27.043 111.664 26.877C111.664 26.6816 111.566 26.584 111.371 26.584C111.156 26.584 110.844 26.7891 110.434 27.1992C110.033 27.5996 109.252 28.4443 108.09 29.7334C107.768 30.0947 107.401 30.5684 106.991 31.1543C106.591 31.7305 106.303 32.1162 106.127 32.3115C105.951 32.5068 105.775 32.6045 105.6 32.6045C105.248 32.6045 104.921 32.292 104.618 31.667C104.315 31.042 104.164 30.3145 104.164 29.4844C104.164 28.8789 104.262 28.3564 104.457 27.917C104.662 27.4775 104.975 26.9307 105.395 26.2764C106.049 25.3291 106.581 24.6553 106.991 24.2549C107.411 23.8447 107.851 23.6396 108.31 23.6396C108.593 23.6396 108.832 23.6982 109.027 23.8154C109.223 23.9229 109.32 24.0742 109.32 24.2695C109.32 24.4746 109.14 24.8115 108.778 25.2803C108.427 25.749 107.978 26.2324 107.431 26.7305C107.138 27.0137 106.859 27.3652 106.596 27.7852C106.332 28.1953 106.2 28.4932 106.2 28.6787C106.2 28.9424 106.303 29.0742 106.508 29.0742C106.674 29.0742 107.094 28.7324 107.768 28.0488C108.441 27.3652 109.179 26.623 109.979 25.8223C110.79 25.0117 111.537 24.3428 112.221 23.8154C112.914 23.2783 113.5 23.0098 113.979 23.0098C114.271 23.0098 114.511 23.1221 114.696 23.3467C114.892 23.5615 114.989 23.8301 114.989 24.1523C114.989 24.3672 114.843 24.7578 114.55 25.3242C114.257 25.8809 113.827 26.5742 113.261 27.4043C112.704 28.2246 111.981 29.2207 111.093 30.3926Z" fill="#2C3540"/>
</g>
<defs>
<clipPath id="clip0_204_448">
<rect width="122" height="34" fill="white"/>
</clipPath>
</defs>
</svg>
