<svg width="16" height="16" viewBox="0 0 16 16" fill="none" xmlns="http://www.w3.org/2000/svg">
<path d="M12.9247 6.15417H11.6939C11.6934 5.66467 11.4987 5.19537 11.1526 4.84924C10.8065 4.50311 10.3372 4.30845 9.84766 4.30796V3.07715C10.6634 3.07813 11.4455 3.40262 12.0224 3.97947C12.5992 4.55631 12.9237 5.33839 12.9247 6.15417V6.15417Z" fill="#CCCCCC"/>
<path d="M15.3845 6.15405H14.1537C14.1524 5.01194 13.6981 3.91698 12.8905 3.10939C12.0829 2.3018 10.988 1.84752 9.84588 1.84622V0.615409C11.3143 0.617038 12.7221 1.20109 13.7605 2.23944C14.7988 3.27778 15.3829 4.68561 15.3845 6.15405V6.15405ZM10.6662 11.3739L12.0447 9.9954C12.2292 9.81084 12.4639 9.68447 12.7195 9.63196C12.9752 9.57946 13.2406 9.60311 13.4829 9.70001L15.1617 10.372C15.4092 10.471 15.6213 10.6419 15.7707 10.8626C15.9201 11.0833 15.9999 11.3437 15.9999 11.6102V14.6632C16.0004 14.8447 15.9637 15.0243 15.8923 15.1912C15.8209 15.358 15.7163 15.5085 15.5847 15.6334C15.4531 15.7584 15.2974 15.8552 15.1271 15.9179C14.9568 15.9806 14.7755 16.0079 14.5943 15.9981C2.82658 15.2657 0.449886 5.29864 0.00864161 1.4819C-0.0127292 1.29531 0.00564629 1.1063 0.0625595 0.92732C0.119473 0.748337 0.213634 0.583432 0.33885 0.443451C0.464066 0.30347 0.617499 0.191584 0.789057 0.115154C0.960615 0.0387237 1.14641 -0.000519667 1.33422 5.19613e-06H4.33309C4.5996 -3.36171e-06 4.86 0.0798425 5.0807 0.229243C5.3014 0.378643 5.47228 0.590745 5.57128 0.838186L6.24269 2.51701C6.33958 2.75934 6.36324 3.02477 6.31073 3.28042C6.25822 3.53607 6.13186 3.77069 5.94729 3.95521L4.56879 5.33371C4.56879 5.33371 5.33312 10.7074 10.6662 11.3739Z" fill="#CCCCCC"/>
</svg>
