<svg width="175" height="62" viewBox="0 0 175 62" fill="none" xmlns="http://www.w3.org/2000/svg">
<g id="Scroll Down For More Details">
<path d="M15.3955 15.7666C15.1514 15.3174 14.7852 14.9121 14.2969 14.5508C13.8086 14.1895 13.2568 13.9014 12.6416 13.6865C12.0361 13.4619 11.4014 13.2959 10.7373 13.1885C8.76465 12.8955 6.92383 12.2559 5.21484 11.2695C5.06836 11.1914 4.91211 11.0254 4.74609 10.7715C4.58008 10.5176 4.49707 10.2734 4.49707 10.0391C4.49707 9.17969 4.63867 8.32031 4.92188 7.46094C5.21484 6.5918 5.58594 5.91309 6.03516 5.4248C6.75781 4.61426 8.05664 3.90625 9.93164 3.30078C11.8164 2.69531 13.9355 2.39258 16.2891 2.39258C17.6953 2.39258 18.7793 2.5 19.541 2.71484C20.3125 2.92969 20.6982 3.26172 20.6982 3.71094C20.6982 4.44336 20.5957 5.00977 20.3906 5.41016C20.1953 5.81055 19.9805 6.0791 19.7461 6.21582C19.5215 6.34277 19.1211 6.51855 18.5449 6.74316C17.9297 6.95801 17.3926 7.18262 16.9336 7.41699C16.4844 7.65137 16.0986 7.87598 15.7764 8.09082C15.4541 8.30566 15.2539 8.41309 15.1758 8.41309C15.0781 8.41309 15.0293 8.37402 15.0293 8.2959C15.0293 8.12988 15.2002 7.88086 15.542 7.54883C15.8936 7.20703 16.3232 6.90918 16.8311 6.65527C17.3682 6.37207 17.6367 6.19141 17.6367 6.11328C17.6367 5.98633 17.3389 5.92285 16.7432 5.92285C14.9365 5.92285 13.2666 6.08398 11.7334 6.40625C10.2002 6.72852 8.98926 7.15332 8.10059 7.68066C7.22168 8.20801 6.78223 8.74512 6.78223 9.29199C6.78223 9.63379 6.96289 9.87793 7.32422 10.0244C7.69531 10.1611 8.50586 10.3955 9.75586 10.7275C11.0059 11.0596 12.124 11.4404 13.1104 11.8701C14.5264 12.4756 15.5762 13.1055 16.2598 13.7598C16.9434 14.4141 17.2852 15.1465 17.2852 15.957C17.2852 16.5137 17.1484 17.0752 16.875 17.6416C16.6113 18.1982 16.2207 18.7109 15.7031 19.1797C15.1855 19.6484 14.5898 20.0342 13.916 20.3369C13.3398 20.5811 12.6123 20.8105 11.7334 21.0254C10.8643 21.2402 9.91699 21.4062 8.8916 21.5234C7.87598 21.6504 6.9043 21.7139 5.97656 21.7139C4.26758 21.7139 2.89062 21.5527 1.8457 21.2305C0.810547 20.9082 0.292969 20.4199 0.292969 19.7656C0.292969 19.4727 0.46875 19.0186 0.820312 18.4033C1.17188 17.7783 1.58691 17.3584 2.06543 17.1436C2.48535 16.9775 2.89062 16.8848 3.28125 16.8652C3.67188 16.8359 3.86719 16.8799 3.86719 16.9971C3.86719 17.0264 3.85254 17.0557 3.82324 17.085C3.79395 17.1143 3.75977 17.1387 3.7207 17.1582C3.68164 17.1777 3.64258 17.1973 3.60352 17.2168C3.4082 17.2949 3.24707 17.3584 3.12012 17.4072C3.00293 17.4463 2.90527 17.4902 2.82715 17.5391C2.75879 17.5781 2.72461 17.6367 2.72461 17.7148C2.72461 17.9199 3.73535 18.0225 5.75684 18.0225C7.51465 18.0225 8.95508 17.959 10.0781 17.832C11.2012 17.7051 12.1924 17.4756 13.0518 17.1436C13.9111 16.8115 14.6924 16.3525 15.3955 15.7666Z" fill="#272727"/>
<path d="M28.4473 15.415V16.3965C27.4023 17.4219 26.5479 18.2178 25.8838 18.7842C25.2295 19.3506 24.6143 19.79 24.0381 20.1025C23.4717 20.415 22.915 20.5713 22.3682 20.5713C21.8311 20.5713 21.3379 20.3613 20.8887 19.9414C20.4395 19.5117 20.0879 18.9551 19.834 18.2715C19.5801 17.5781 19.4531 16.8457 19.4531 16.0742C19.4531 15.4102 19.5996 14.8193 19.8926 14.3018C20.1855 13.7842 20.752 13.1152 21.5918 12.2949C22.5879 11.3184 23.5107 10.5664 24.3604 10.0391C25.2197 9.50195 25.8936 9.2334 26.3818 9.2334C26.7334 9.2334 27.0312 9.35547 27.2754 9.59961C27.5195 9.84375 27.6416 10.1514 27.6416 10.5225C27.6416 10.835 27.4805 11.2793 27.1582 11.8555C26.8359 12.4316 26.4746 12.9346 26.0742 13.3643C25.6738 13.7842 25.3564 13.9941 25.1221 13.9941C24.8682 13.9941 24.7412 13.8574 24.7412 13.584C24.751 13.5059 24.7559 13.4326 24.7559 13.3643C24.7656 13.2959 24.7705 13.2275 24.7705 13.1592C24.7705 13.042 24.7266 12.9785 24.6387 12.9688C24.5605 12.9492 24.4629 12.9834 24.3457 13.0713C23.3691 13.7549 22.7002 14.2383 22.3389 14.5215C21.9775 14.7949 21.6895 15.0732 21.4746 15.3564C21.2695 15.6396 21.167 15.9375 21.167 16.25C21.167 16.8262 21.3525 17.2949 21.7236 17.6562C22.0947 18.0176 22.5781 18.1982 23.1738 18.1982C23.7891 18.1982 24.5264 17.9639 25.3857 17.4951C26.2549 17.0166 27.2754 16.3232 28.4473 15.415Z" fill="#272727"/>
<path d="M28.2422 16.5137V15.5615C28.7695 14.9365 29.1699 14.4043 29.4434 13.9648C29.1309 13.8574 28.9014 13.7256 28.7549 13.5693C28.6182 13.4131 28.5498 13.1787 28.5498 12.8662C28.5498 12.5146 28.6963 12.0703 28.9893 11.5332C29.2822 10.9961 29.6436 10.4932 30.0732 10.0244C30.5029 9.55566 30.8936 9.25293 31.2451 9.11621C31.3818 9.04785 31.5137 9.01367 31.6406 9.01367C31.8359 9.01367 31.9336 9.10645 31.9336 9.29199C31.9336 9.45801 31.7822 9.79492 31.4795 10.3027C33.4912 9.99023 34.7607 9.83398 35.2881 9.83398C35.4932 9.83398 35.6348 9.85352 35.7129 9.89258C35.8789 9.98047 36.0156 10.1855 36.123 10.5078C36.2305 10.8301 36.2842 11.1523 36.2842 11.4746C36.2842 11.6797 36.1914 11.9043 36.0059 12.1484C35.8301 12.3828 35.5225 12.7295 35.083 13.1885C34.5654 13.7451 34.1309 14.3506 33.7793 15.0049C33.4277 15.6592 33.252 16.1523 33.252 16.4844C33.252 16.9434 33.5352 17.1729 34.1016 17.1729C34.6973 17.1729 35.7324 16.5674 37.207 15.3564V16.3379C36.3965 17.1875 35.7275 17.8564 35.2002 18.3447C34.6729 18.833 34.1846 19.2236 33.7354 19.5166C33.2861 19.7998 32.8857 19.9414 32.5342 19.9414C32.124 19.9414 31.7822 19.7559 31.5088 19.3848C31.2354 19.0039 31.0986 18.457 31.0986 17.7441C31.0986 17.3242 31.2061 16.8457 31.4209 16.3086C31.6357 15.7715 31.9482 15.1904 32.3584 14.5654C32.7783 13.9307 33.2471 13.3008 33.7646 12.6758C33.4912 12.7344 33.1836 12.7979 32.8418 12.8662C32.5 12.9248 32.1387 12.9883 31.7578 13.0566C31.377 13.125 31.084 13.1787 30.8789 13.2178C30.2734 14.4287 29.3945 15.5273 28.2422 16.5137Z" fill="#272727"/>
<path d="M46.5674 15.3564V16.3379C45.9229 16.9238 45.4053 17.3145 45.0146 17.5098C44.624 17.7051 44.0625 17.7832 43.3301 17.7441C42.0605 19.248 40.9424 20 39.9756 20C39.4287 20 38.9307 19.8193 38.4814 19.458C38.0322 19.0967 37.6709 18.6035 37.3975 17.9785C37.1338 17.3535 37.002 16.6553 37.002 15.8838C37.002 15.2588 37.207 14.5654 37.6172 13.8037C38.0371 13.042 38.5742 12.334 39.2285 11.6797C39.8926 11.0156 40.6006 10.4834 41.3525 10.083C42.1045 9.67285 42.8027 9.46777 43.4473 9.46777C43.9062 9.46777 44.2676 9.54102 44.5312 9.6875C44.7949 9.82422 44.9268 10.0195 44.9268 10.2734C44.9268 10.4688 44.8145 10.6934 44.5898 10.9473C44.9609 11.0254 45.2148 11.1572 45.3516 11.3428C45.4883 11.5186 45.5566 11.8457 45.5566 12.3242C45.5566 12.793 45.4443 13.3838 45.2197 14.0967C45.0049 14.8096 44.707 15.4785 44.3262 16.1035L44.5898 16.3672H44.8096C44.9756 16.3672 45.1367 16.3281 45.293 16.25C45.459 16.1621 45.6055 16.0742 45.7324 15.9863C45.8594 15.8887 46.1377 15.6787 46.5674 15.3564ZM43.5498 11.5039C42.7393 11.9922 42.0459 12.4365 41.4697 12.8369C40.8936 13.2275 40.4053 13.6279 40.0049 14.0381C39.6045 14.4385 39.3359 14.8438 39.1992 15.2539C38.9551 16.3477 38.833 16.9385 38.833 17.0264C38.833 17.6709 39.2822 17.9932 40.1807 17.9932C40.6006 17.9932 41.3037 17.6318 42.29 16.9092C42.124 16.4502 42.041 16.0107 42.041 15.5908C42.041 14.9756 42.168 14.3506 42.4219 13.7158C42.6758 13.0713 43.0518 12.334 43.5498 11.5039Z" fill="#272727"/>
<path d="M53.5547 15.2246V16.3086C51.5137 19.0137 49.8535 20.3662 48.5742 20.3662C47.8809 20.3662 47.334 19.9902 46.9336 19.2383C46.543 18.4766 46.3477 17.4805 46.3477 16.25C46.3477 15.2539 46.582 14.0723 47.0508 12.7051C47.5195 11.3281 48.1445 9.93652 48.9258 8.53027C49.7168 7.11426 50.5322 5.88379 51.3721 4.83887C52.2217 3.78418 53.0078 3.04688 53.7305 2.62695C54.0234 2.45117 54.2529 2.36328 54.4189 2.36328C54.624 2.36328 54.7607 2.45605 54.8291 2.6416C54.8975 2.81738 54.9316 3.125 54.9316 3.56445C54.9316 4.92188 54.3799 6.5918 53.2764 8.57422C52.1729 10.5469 50.6348 12.5635 48.6621 14.624C48.5645 15.1318 48.5156 15.5225 48.5156 15.7959C48.5156 16.4209 48.6475 16.9287 48.9111 17.3193C49.1846 17.71 49.5605 17.9053 50.0391 17.9053C50.2832 17.9053 50.5469 17.8125 50.8301 17.627C51.1133 17.4316 51.4111 17.1924 51.7236 16.9092C52.0361 16.626 52.6465 16.0645 53.5547 15.2246ZM49.1748 12.5879C49.6826 12.0898 50.1709 11.5234 50.6396 10.8887C51.1182 10.2539 51.5674 9.5752 51.9873 8.85254C52.4072 8.12988 52.7344 7.48047 52.9688 6.9043C53.2129 6.32812 53.335 5.89355 53.335 5.60059C53.335 5.37598 53.2568 5.26367 53.1006 5.26367C53.042 5.26367 52.9297 5.31738 52.7637 5.4248C52.168 5.91309 51.499 6.87012 50.7568 8.2959C50.0146 9.71191 49.4873 11.1426 49.1748 12.5879Z" fill="#272727"/>
<path d="M60.4395 15.2246V16.3086C58.3984 19.0137 56.7383 20.3662 55.459 20.3662C54.7656 20.3662 54.2188 19.9902 53.8184 19.2383C53.4277 18.4766 53.2324 17.4805 53.2324 16.25C53.2324 15.2539 53.4668 14.0723 53.9355 12.7051C54.4043 11.3281 55.0293 9.93652 55.8105 8.53027C56.6016 7.11426 57.417 5.88379 58.2568 4.83887C59.1064 3.78418 59.8926 3.04688 60.6152 2.62695C60.9082 2.45117 61.1377 2.36328 61.3037 2.36328C61.5088 2.36328 61.6455 2.45605 61.7139 2.6416C61.7822 2.81738 61.8164 3.125 61.8164 3.56445C61.8164 4.92188 61.2646 6.5918 60.1611 8.57422C59.0576 10.5469 57.5195 12.5635 55.5469 14.624C55.4492 15.1318 55.4004 15.5225 55.4004 15.7959C55.4004 16.4209 55.5322 16.9287 55.7959 17.3193C56.0693 17.71 56.4453 17.9053 56.9238 17.9053C57.168 17.9053 57.4316 17.8125 57.7148 17.627C57.998 17.4316 58.2959 17.1924 58.6084 16.9092C58.9209 16.626 59.5312 16.0645 60.4395 15.2246ZM56.0596 12.5879C56.5674 12.0898 57.0557 11.5234 57.5244 10.8887C58.0029 10.2539 58.4521 9.5752 58.8721 8.85254C59.292 8.12988 59.6191 7.48047 59.8535 6.9043C60.0977 6.32812 60.2197 5.89355 60.2197 5.60059C60.2197 5.37598 60.1416 5.26367 59.9854 5.26367C59.9268 5.26367 59.8145 5.31738 59.6484 5.4248C59.0527 5.91309 58.3838 6.87012 57.6416 8.2959C56.8994 9.71191 56.3721 11.1426 56.0596 12.5879Z" fill="#272727"/>
<path d="M70.0781 7.12402C70.0781 7.19238 70.1416 7.22656 70.2686 7.22656C70.3564 7.22656 70.752 7.16797 71.4551 7.05078C72.168 6.93359 72.8125 6.87012 73.3887 6.86035C72.7441 7.03613 72.1875 7.2168 71.7188 7.40234C71.2598 7.57812 70.7812 7.77832 70.2832 8.00293C69.7949 8.21777 69.4434 8.36426 69.2285 8.44238C69.0137 8.51074 68.8281 8.54492 68.6719 8.54492C68.1738 8.54492 67.9248 8.22266 67.9248 7.57812C67.9248 5.91797 68.3447 4.75098 69.1846 4.07715C69.5264 3.80371 70.0732 3.48145 70.8252 3.11035C71.5869 2.72949 72.4414 2.37305 73.3887 2.04102C74.3457 1.69922 75.3955 1.40625 76.5381 1.16211C77.6807 0.917969 78.8086 0.795898 79.9219 0.795898C81.0645 0.795898 82.1143 0.961914 83.0713 1.29395C84.0283 1.62598 84.8291 2.09473 85.4736 2.7002C86.1182 3.2959 86.6113 4.02832 86.9531 4.89746C87.3047 5.7666 87.4805 6.74316 87.4805 7.82715C87.4805 9.47754 87.002 11.0791 86.0449 12.6318C85.0977 14.1846 83.8281 15.5566 82.2363 16.748C80.6543 17.9297 78.8672 18.8672 76.875 19.5605C74.8828 20.2539 72.9199 20.6006 70.9863 20.6006C70.625 20.6006 70.3369 20.5615 70.1221 20.4834C69.917 20.4053 69.7705 20.249 69.6826 20.0146C69.5947 19.79 69.5508 19.4531 69.5508 19.0039C69.5508 18.4473 69.5947 17.9932 69.6826 17.6416C69.7705 17.29 69.917 16.8848 70.1221 16.4258C71.5283 13.3105 73.9746 9.38965 77.4609 4.66309C76.7578 4.74121 75.9863 4.89258 75.1465 5.11719C74.3066 5.33203 73.5107 5.57129 72.7588 5.83496C72.0068 6.09863 71.3721 6.35254 70.8545 6.59668C70.3369 6.84082 70.0781 7.0166 70.0781 7.12402ZM77.8857 4.5752C77.8857 4.59473 77.9053 4.70703 77.9443 4.91211C77.9834 5.10742 78.0029 5.27832 78.0029 5.4248C78.0029 5.64941 77.8857 5.9668 77.6514 6.37695C77.4268 6.77734 76.9775 7.49512 76.3037 8.53027C75.6299 9.56543 75.0537 10.4736 74.5752 11.2549C74.0967 12.0361 73.5303 13.042 72.876 14.2725C72.6709 14.6631 72.5293 14.9268 72.4512 15.0635C72.373 15.2002 72.2461 15.4248 72.0703 15.7373C71.9043 16.0498 71.7822 16.3184 71.7041 16.543C71.626 16.7676 71.5869 16.9385 71.5869 17.0557C71.5869 17.3096 71.7236 17.4902 71.9971 17.5977C72.2803 17.6953 72.6807 17.7441 73.1982 17.7441C74.5264 17.7441 75.9326 17.5049 77.417 17.0264C78.9014 16.5381 80.293 15.8643 81.5918 15.0049C82.9004 14.1455 83.9453 13.1738 84.7266 12.0898C85.5078 11.0059 85.8984 9.87305 85.8984 8.69141C85.8984 7.34375 85.4053 6.30859 84.4189 5.58594C83.4326 4.85352 81.9971 4.4873 80.1123 4.4873C79.3213 4.4873 78.5791 4.5166 77.8857 4.5752Z" fill="#272727"/>
<path d="M97.5732 15.3564V16.3379C96.9287 16.9238 96.4111 17.3145 96.0205 17.5098C95.6299 17.7051 95.0684 17.7832 94.3359 17.7441C93.0664 19.248 91.9482 20 90.9814 20C90.4346 20 89.9365 19.8193 89.4873 19.458C89.0381 19.0967 88.6768 18.6035 88.4033 17.9785C88.1396 17.3535 88.0078 16.6553 88.0078 15.8838C88.0078 15.2588 88.2129 14.5654 88.623 13.8037C89.043 13.042 89.5801 12.334 90.2344 11.6797C90.8984 11.0156 91.6064 10.4834 92.3584 10.083C93.1104 9.67285 93.8086 9.46777 94.4531 9.46777C94.9121 9.46777 95.2734 9.54102 95.5371 9.6875C95.8008 9.82422 95.9326 10.0195 95.9326 10.2734C95.9326 10.4688 95.8203 10.6934 95.5957 10.9473C95.9668 11.0254 96.2207 11.1572 96.3574 11.3428C96.4941 11.5186 96.5625 11.8457 96.5625 12.3242C96.5625 12.793 96.4502 13.3838 96.2256 14.0967C96.0107 14.8096 95.7129 15.4785 95.332 16.1035L95.5957 16.3672H95.8154C95.9814 16.3672 96.1426 16.3281 96.2988 16.25C96.4648 16.1621 96.6113 16.0742 96.7383 15.9863C96.8652 15.8887 97.1436 15.6787 97.5732 15.3564ZM94.5557 11.5039C93.7451 11.9922 93.0518 12.4365 92.4756 12.8369C91.8994 13.2275 91.4111 13.6279 91.0107 14.0381C90.6104 14.4385 90.3418 14.8438 90.2051 15.2539C89.9609 16.3477 89.8389 16.9385 89.8389 17.0264C89.8389 17.6709 90.2881 17.9932 91.1865 17.9932C91.6064 17.9932 92.3096 17.6318 93.2959 16.9092C93.1299 16.4502 93.0469 16.0107 93.0469 15.5908C93.0469 14.9756 93.1738 14.3506 93.4277 13.7158C93.6816 13.0713 94.0576 12.334 94.5557 11.5039Z" fill="#272727"/>
<path d="M105.22 17.1143C105.22 17.5537 105.386 17.7734 105.718 17.7734C106.147 17.7734 106.899 17.0459 107.974 15.5908C107.935 15.3174 107.915 15.1367 107.915 15.0488C107.915 14.5215 108.125 13.877 108.545 13.1152C108.965 12.3535 109.448 11.6895 109.995 11.123C110.542 10.5566 110.957 10.2734 111.24 10.2734C111.582 10.2734 111.753 10.6836 111.753 11.5039C111.753 12.1777 111.606 12.8418 111.313 13.4961C111.03 14.1504 110.615 14.8193 110.068 15.5029C110.156 15.5908 110.254 15.6836 110.361 15.7812C110.469 15.8691 110.581 15.9473 110.698 16.0156C110.825 16.0742 110.957 16.1035 111.094 16.1035C111.416 16.1035 111.826 15.8447 112.324 15.3271V16.3672C111.553 17.168 110.884 17.5684 110.317 17.5684C109.985 17.5684 109.722 17.5293 109.526 17.4512C109.341 17.3633 109.102 17.2119 108.809 16.9971C107.012 19.1553 105.645 20.2344 104.707 20.2344C104.346 20.2344 104.058 20.1025 103.843 19.8389C103.638 19.5654 103.535 19.1895 103.535 18.7109C103.535 18.4766 103.633 17.5977 103.828 16.0742C103.447 16.5137 103.003 17.0312 102.495 17.627C101.987 18.2227 101.577 18.6816 101.265 19.0039C100.952 19.3164 100.659 19.5605 100.386 19.7363C100.122 19.9121 99.8535 20 99.5801 20C99.3164 20 98.999 19.834 98.6279 19.502C98.2666 19.1699 97.959 18.7305 97.7051 18.1836C97.4512 17.627 97.3242 17.0312 97.3242 16.3965C97.3242 15.7812 97.4121 15.2539 97.5879 14.8145C97.7637 14.375 98.1641 13.7158 98.7891 12.8369C99.3555 12.0557 99.8584 11.416 100.298 10.918C100.737 10.4199 101.133 10.0342 101.484 9.76074C101.846 9.4873 102.139 9.35059 102.363 9.35059C102.5 9.35059 102.676 9.38477 102.891 9.45312C103.115 9.51172 103.311 9.59473 103.477 9.70215C103.652 9.80957 103.74 9.92188 103.74 10.0391C103.74 10.4102 103.574 10.8789 103.242 11.4453C102.92 12.0117 102.437 12.6465 101.792 13.3496C101.147 14.0527 100.41 14.7705 99.5801 15.5029C99.3555 16.1768 99.2432 16.7236 99.2432 17.1436C99.2432 17.2803 99.2822 17.4121 99.3604 17.5391C99.4482 17.6562 99.5508 17.7148 99.668 17.7148C100.068 17.7148 100.835 17.0898 101.968 15.8398C103.11 14.5898 104.614 12.6953 106.479 10.1562C106.548 10.0586 106.694 10.0098 106.919 10.0098C107.163 10.0098 107.383 10.0635 107.578 10.1709C107.783 10.2783 107.886 10.4248 107.886 10.6104C107.886 10.7178 107.627 11.2891 107.109 12.3242C106.602 13.3594 106.157 14.3115 105.776 15.1807C105.405 16.04 105.22 16.6846 105.22 17.1143Z" fill="#272727"/>
<path d="M122.139 12.7344C120.42 14.6484 119.561 15.9814 119.561 16.7334C119.561 17.1533 119.731 17.3633 120.073 17.3633C120.356 17.3633 120.723 17.2168 121.172 16.9238C121.631 16.6211 122.344 16.0889 123.311 15.3271V16.3379C121.924 17.7051 120.859 18.6914 120.117 19.2969C119.375 19.9023 118.77 20.2051 118.301 20.2051C117.5 20.2051 117.1 19.6777 117.1 18.623C117.1 18.3105 117.148 18.0029 117.246 17.7002C117.344 17.3975 117.476 17.085 117.642 16.7627C117.817 16.4307 118.081 15.9619 118.433 15.3564C118.784 14.7412 119.189 14.0479 119.648 13.2764C119.092 13.5596 118.394 14.1211 117.554 14.9609C117.007 15.4883 116.543 15.9912 116.162 16.4697C115.781 16.9385 115.371 17.4658 114.932 18.0518C114.502 18.6279 114.185 19.0186 113.979 19.2236C113.784 19.4189 113.584 19.5166 113.379 19.5166C113.066 19.5166 112.778 19.1895 112.515 18.5352C112.251 17.8809 112.119 17.1191 112.119 16.25C112.119 15.7129 112.178 15.293 112.295 14.9902C112.422 14.6875 112.666 14.2578 113.027 13.7012C113.701 12.666 114.282 11.9092 114.771 11.4307C115.259 10.9424 115.728 10.6982 116.177 10.6982C116.489 10.6982 116.738 10.752 116.924 10.8594C117.119 10.9668 117.217 11.1328 117.217 11.3574C117.217 11.4551 117.188 11.5576 117.129 11.665C117.07 11.7725 117.002 11.8701 116.924 11.958C116.855 12.0459 116.704 12.2168 116.47 12.4707C114.927 14.1797 114.155 15.2881 114.155 15.7959C114.155 16.0791 114.248 16.2207 114.434 16.2207C114.551 16.2207 114.775 16.0352 115.107 15.6641C115.449 15.2832 115.884 14.79 116.411 14.1846C116.948 13.5693 117.578 12.9297 118.301 12.2656C119.033 11.6016 119.863 10.9619 120.791 10.3467C121.309 9.98535 121.738 9.80469 122.08 9.80469C122.236 9.80469 122.388 10.0195 122.534 10.4492C122.69 10.8789 122.769 11.3135 122.769 11.7529C122.769 11.9678 122.559 12.2949 122.139 12.7344Z" fill="#272727"/>
<path d="M9.72656 49.7051H11.9385C13.2178 47.9863 14.1895 46.4873 14.8535 45.208C15.5273 43.9287 15.8643 43.0889 15.8643 42.6885C15.8643 42.1318 15.3857 41.8535 14.4287 41.8535C13.8721 41.9023 12.8857 42.0244 11.4697 42.2197C10.0537 42.4053 8.68164 42.6299 7.35352 42.8936C6.16211 43.1182 5.20508 43.3525 4.48242 43.5967C3.76953 43.8311 3.2666 44.0264 2.97363 44.1826C2.68066 44.3389 2.5 44.4512 2.43164 44.5195C3.1543 44.4805 3.76465 44.4609 4.2627 44.4609C5.04395 44.4609 5.43457 44.5488 5.43457 44.7246C5.43457 44.8027 5.16113 44.9053 4.61426 45.0322C4.06738 45.1494 3.5498 45.2764 3.06152 45.4131C2.58301 45.5498 2.11426 45.7109 1.65527 45.8965C1.20605 46.082 0.932617 46.1748 0.834961 46.1748C0.610352 46.1748 0.424805 46.0918 0.27832 45.9258C0.131836 45.75 0.0585938 45.54 0.0585938 45.2959C0.0585938 45.1299 0.19043 44.7002 0.454102 44.0068C0.727539 43.3037 1.1084 42.6006 1.59668 41.8975C2.08496 41.1846 2.69043 40.6572 3.41309 40.3154C3.67676 40.1885 4.5166 39.959 5.93262 39.627C7.3584 39.2949 8.96484 38.9922 10.752 38.7188C12.5391 38.4453 14.1748 38.3086 15.6592 38.3086C16.5576 38.3086 17.2754 38.4355 17.8125 38.6895C18.3594 38.9336 18.6328 39.4658 18.6328 40.2861C18.6328 40.5498 18.5352 40.96 18.3398 41.5166C18.1445 42.0635 17.832 42.7666 17.4023 43.626C16.9824 44.4854 16.4648 45.4277 15.8496 46.4531C15.2441 47.4785 14.5508 48.5625 13.7695 49.7051H16.0254L14.0771 52.5029C13.8135 52.5225 13.4814 52.5371 13.0811 52.5469C12.6904 52.5566 12.2607 52.5713 11.792 52.5908C10.5908 54.1533 9.28711 55.623 7.88086 57C6.48438 58.377 5.21484 59.4805 4.07227 60.3105C2.93945 61.1406 2.14355 61.5557 1.68457 61.5557C1.49902 61.5557 1.33789 61.4922 1.20117 61.3652C1.06445 61.248 0.996094 61.0918 0.996094 60.8965C0.996094 60.7305 1.21094 60.3057 1.64062 59.6221C2.08008 58.9385 2.68555 58.2988 3.45703 57.7031C4.22852 57.1074 5.10742 56.7754 6.09375 56.707C6.49414 56.2871 6.83594 55.916 7.11914 55.5938C7.41211 55.2617 7.82227 54.7881 8.34961 54.1729C8.87695 53.5479 9.28223 53.0693 9.56543 52.7373L5.15625 52.957C4.67773 52.9766 4.3457 52.957 4.16016 52.8984C3.98438 52.8301 3.89648 52.6689 3.89648 52.415C3.89648 52.415 3.94531 52.293 4.04297 52.0488C4.14062 51.7949 4.24316 51.5752 4.35059 51.3896C4.50684 51.1064 4.62891 50.9355 4.7168 50.877C4.81445 50.8184 5.08301 50.7402 5.52246 50.6426L8.21777 49.9834C8.94043 49.7979 9.44336 49.7051 9.72656 49.7051Z" fill="#272727"/>
<path d="M26.1475 52.3564V53.3379C25.5029 53.9238 24.9854 54.3145 24.5947 54.5098C24.2041 54.7051 23.6426 54.7832 22.9102 54.7441C21.6406 56.248 20.5225 57 19.5557 57C19.0088 57 18.5107 56.8193 18.0615 56.458C17.6123 56.0967 17.251 55.6035 16.9775 54.9785C16.7139 54.3535 16.582 53.6553 16.582 52.8838C16.582 52.2588 16.7871 51.5654 17.1973 50.8037C17.6172 50.042 18.1543 49.334 18.8086 48.6797C19.4727 48.0156 20.1807 47.4834 20.9326 47.083C21.6846 46.6729 22.3828 46.4678 23.0273 46.4678C23.4863 46.4678 23.8477 46.541 24.1113 46.6875C24.375 46.8242 24.5068 47.0195 24.5068 47.2734C24.5068 47.4688 24.3945 47.6934 24.1699 47.9473C24.541 48.0254 24.7949 48.1572 24.9316 48.3428C25.0684 48.5186 25.1367 48.8457 25.1367 49.3242C25.1367 49.793 25.0244 50.3838 24.7998 51.0967C24.585 51.8096 24.2871 52.4785 23.9062 53.1035L24.1699 53.3672H24.3896C24.5557 53.3672 24.7168 53.3281 24.873 53.25C25.0391 53.1621 25.1855 53.0742 25.3125 52.9863C25.4395 52.8887 25.7178 52.6787 26.1475 52.3564ZM23.1299 48.5039C22.3193 48.9922 21.626 49.4365 21.0498 49.8369C20.4736 50.2275 19.9854 50.6279 19.585 51.0381C19.1846 51.4385 18.916 51.8438 18.7793 52.2539C18.5352 53.3477 18.4131 53.9385 18.4131 54.0264C18.4131 54.6709 18.8623 54.9932 19.7607 54.9932C20.1807 54.9932 20.8838 54.6318 21.8701 53.9092C21.7041 53.4502 21.6211 53.0107 21.6211 52.5908C21.6211 51.9756 21.748 51.3506 22.002 50.7158C22.2559 50.0713 22.6318 49.334 23.1299 48.5039Z" fill="#272727"/>
<path d="M25.9863 53.5137V52.5615C26.5137 51.9365 26.9141 51.4043 27.1875 50.9648C26.875 50.8574 26.6455 50.7256 26.499 50.5693C26.3623 50.4131 26.2939 50.1787 26.2939 49.8662C26.2939 49.5146 26.4404 49.0703 26.7334 48.5332C27.0264 47.9961 27.3877 47.4932 27.8174 47.0244C28.2471 46.5557 28.6377 46.2529 28.9893 46.1162C29.126 46.0479 29.2578 46.0137 29.3848 46.0137C29.5801 46.0137 29.6777 46.1064 29.6777 46.292C29.6777 46.458 29.5264 46.7949 29.2236 47.3027C31.2354 46.9902 32.5049 46.834 33.0322 46.834C33.2373 46.834 33.3789 46.8535 33.457 46.8926C33.623 46.9805 33.7598 47.1855 33.8672 47.5078C33.9746 47.8301 34.0283 48.1523 34.0283 48.4746C34.0283 48.6797 33.9355 48.9043 33.75 49.1484C33.5742 49.3828 33.2666 49.7295 32.8271 50.1885C32.3096 50.7451 31.875 51.3506 31.5234 52.0049C31.1719 52.6592 30.9961 53.1523 30.9961 53.4844C30.9961 53.9434 31.2793 54.1729 31.8457 54.1729C32.4414 54.1729 33.4766 53.5674 34.9512 52.3564V53.3379C34.1406 54.1875 33.4717 54.8564 32.9443 55.3447C32.417 55.833 31.9287 56.2236 31.4795 56.5166C31.0303 56.7998 30.6299 56.9414 30.2783 56.9414C29.8682 56.9414 29.5264 56.7559 29.2529 56.3848C28.9795 56.0039 28.8428 55.457 28.8428 54.7441C28.8428 54.3242 28.9502 53.8457 29.165 53.3086C29.3799 52.7715 29.6924 52.1904 30.1025 51.5654C30.5225 50.9307 30.9912 50.3008 31.5088 49.6758C31.2354 49.7344 30.9277 49.7979 30.5859 49.8662C30.2441 49.9248 29.8828 49.9883 29.502 50.0566C29.1211 50.125 28.8281 50.1787 28.623 50.2178C28.0176 51.4287 27.1387 52.5273 25.9863 53.5137Z" fill="#272727"/>
<path d="M68.4229 52.3271V53.3379C67.4951 54.207 66.7041 54.9102 66.0498 55.4473C65.4053 55.9746 64.7607 56.4531 64.1162 56.8828C63.4717 57.3027 62.9346 57.6006 62.5049 57.7764C62.085 57.9619 61.7236 58.0547 61.4209 58.0547C60.6982 58.0547 60.1074 57.7861 59.6484 57.249C59.1895 56.7119 58.96 56.0186 58.96 55.1689C58.96 54.1924 59.1553 53.2256 59.5459 52.2686C59.9463 51.3115 60.5127 50.3252 61.2451 49.3096C61.9775 48.2842 62.8955 47.1367 63.999 45.8672C64.8193 44.9297 65.2295 44.4023 65.2295 44.2852C65.2295 44.2168 65.2051 44.1582 65.1562 44.1094C65.1074 44.0605 65.0537 44.0361 64.9951 44.0361C64.8096 44.0361 64.2383 44.4463 63.2812 45.2666C62.3242 46.0869 61.0938 47.293 59.5898 48.8848C58.0957 50.4766 56.4795 52.3711 54.7412 54.5684C54.6436 54.6855 54.3311 55.0859 53.8037 55.7695C53.2861 56.4434 52.9199 56.8828 52.7051 57.0879C52.4902 57.293 52.3047 57.3955 52.1484 57.3955C51.875 57.3955 51.6357 57.1221 51.4307 56.5752C51.2354 56.0186 51.1377 55.4277 51.1377 54.8027C51.1377 54.4219 51.2598 54.0117 51.5039 53.5723C51.7578 53.1328 52.2998 52.3467 53.1299 51.2139C53.9697 50.0713 54.6631 49.1094 55.21 48.3281C55.7568 47.5469 56.3574 46.5996 57.0117 45.4863C57.4707 44.7148 57.8076 44.0996 58.0225 43.6406C58.2471 43.1816 58.3594 42.7764 58.3594 42.4248C58.3594 42.1221 58.2715 41.9707 58.0957 41.9707C57.7246 41.9707 57.0264 42.4688 56.001 43.4648C54.9756 44.4512 53.7061 45.9209 52.1924 47.874C50.6885 49.8271 49.1162 52.0879 47.4756 54.6562C46.9385 55.5352 46.5576 56.126 46.333 56.4287C46.1084 56.7314 45.8594 56.8828 45.5859 56.8828C45.2441 56.8828 44.9219 56.5215 44.6191 55.7988C44.3262 55.0664 44.1797 54.4756 44.1797 54.0264C44.1797 53.8799 44.2383 53.7188 44.3555 53.543C45.6445 51.8242 46.7041 50.3643 47.5342 49.1631C48.3643 47.9619 49.1016 46.8242 49.7461 45.75C50.3906 44.666 50.8594 43.7773 51.1523 43.084C51.4453 42.3809 51.5918 41.8291 51.5918 41.4287C51.5918 41.0088 51.4014 40.7988 51.0205 40.7988C50.708 40.7988 50.1758 40.999 49.4238 41.3994C48.6719 41.7998 47.7197 42.3467 46.5674 43.04C45.4248 43.7334 44.5068 44.2656 43.8135 44.6367C43.1201 44.998 42.6025 45.1787 42.2607 45.1787C41.9385 45.1787 41.7773 44.998 41.7773 44.6367C41.7773 44.4316 41.8457 43.9629 41.9824 43.2305C42.1191 42.4883 42.2607 41.9658 42.4072 41.6631C42.6123 41.2725 43.1348 40.7549 43.9746 40.1104C44.8242 39.4658 45.293 39.1436 45.3809 39.1436C45.459 39.1436 45.498 39.1777 45.498 39.2461C45.498 39.2852 45.459 39.3438 45.3809 39.4219C44.9805 39.7441 44.6826 40.0078 44.4873 40.2129C44.292 40.418 44.1699 40.6426 44.1211 40.8867C45.9082 39.8125 47.5049 38.9971 48.9111 38.4404C50.3271 37.874 51.3086 37.5908 51.8555 37.5908C52.1289 37.5908 52.3877 37.7764 52.6318 38.1475C52.876 38.5088 53.0811 38.9336 53.2471 39.4219C53.4229 39.9004 53.5107 40.208 53.5107 40.3447C53.5107 40.8428 53.3838 41.4336 53.1299 42.1172C52.876 42.791 52.5293 43.5771 52.0898 44.4756C51.6602 45.374 51.123 46.4971 50.4785 47.8447C50.9863 47.1904 51.4697 46.585 51.9287 46.0283C52.3877 45.4717 52.8418 44.9297 53.291 44.4023C53.75 43.875 54.2139 43.3428 54.6826 42.8057C55.3174 42.0732 56.0303 41.375 56.8213 40.7109C57.6123 40.0371 58.3496 39.4902 59.0332 39.0703C59.7266 38.6406 60.1953 38.4258 60.4395 38.4258C60.7812 38.4258 61.084 38.6162 61.3477 38.9971C61.6211 39.3682 61.7578 39.7686 61.7578 40.1982C61.7578 40.4814 61.5723 41.0234 61.2012 41.8242C60.8301 42.625 60.2881 43.6504 59.5752 44.9004C58.8623 46.1504 57.9199 47.7617 56.748 49.7344C57.8613 48.5527 59.0186 47.3369 60.2197 46.0869C61.4209 44.8369 62.3145 43.9238 62.9004 43.3477C63.4863 42.7715 63.9746 42.332 64.3652 42.0293C64.9023 41.6191 65.4395 41.1797 65.9766 40.7109C66.5234 40.2324 66.9531 39.8564 67.2656 39.583C67.5781 39.3096 67.8564 39.0996 68.1006 38.9531C68.3447 38.8066 68.5693 38.7334 68.7744 38.7334C69.0283 38.7334 69.3457 39.0264 69.7266 39.6123C70.1172 40.1982 70.3125 40.5742 70.3125 40.7402C70.3125 40.9453 70.1953 41.1895 69.9609 41.4727C69.7363 41.7559 69.2627 42.2832 68.54 43.0547C67.2119 44.4805 66.0596 45.9209 65.083 47.376C64.1064 48.8213 63.3643 50.1445 62.8564 51.3457C62.3584 52.5371 62.1094 53.4795 62.1094 54.1729C62.1094 54.6025 62.1875 54.915 62.3438 55.1104C62.5098 55.3057 62.7637 55.4033 63.1055 55.4033C63.418 55.4033 63.7061 55.3447 63.9697 55.2275C64.2432 55.1104 64.541 54.9443 64.8633 54.7295C65.1953 54.5146 65.5078 54.3096 65.8008 54.1143C66.2109 53.8701 66.6113 53.6113 67.002 53.3379C67.4023 53.0547 67.71 52.835 67.9248 52.6787C68.1494 52.5127 68.3154 52.3955 68.4229 52.3271Z" fill="#272727"/>
<path d="M77.7393 52.3564V53.3379C77.0947 53.9238 76.5771 54.3145 76.1865 54.5098C75.7959 54.7051 75.2344 54.7832 74.502 54.7441C73.2324 56.248 72.1143 57 71.1475 57C70.6006 57 70.1025 56.8193 69.6533 56.458C69.2041 56.0967 68.8428 55.6035 68.5693 54.9785C68.3057 54.3535 68.1738 53.6553 68.1738 52.8838C68.1738 52.2588 68.3789 51.5654 68.7891 50.8037C69.209 50.042 69.7461 49.334 70.4004 48.6797C71.0645 48.0156 71.7725 47.4834 72.5244 47.083C73.2764 46.6729 73.9746 46.4678 74.6191 46.4678C75.0781 46.4678 75.4395 46.541 75.7031 46.6875C75.9668 46.8242 76.0986 47.0195 76.0986 47.2734C76.0986 47.4688 75.9863 47.6934 75.7617 47.9473C76.1328 48.0254 76.3867 48.1572 76.5234 48.3428C76.6602 48.5186 76.7285 48.8457 76.7285 49.3242C76.7285 49.793 76.6162 50.3838 76.3916 51.0967C76.1768 51.8096 75.8789 52.4785 75.498 53.1035L75.7617 53.3672H75.9814C76.1475 53.3672 76.3086 53.3281 76.4648 53.25C76.6309 53.1621 76.7773 53.0742 76.9043 52.9863C77.0312 52.8887 77.3096 52.6787 77.7393 52.3564ZM74.7217 48.5039C73.9111 48.9922 73.2178 49.4365 72.6416 49.8369C72.0654 50.2275 71.5771 50.6279 71.1768 51.0381C70.7764 51.4385 70.5078 51.8438 70.3711 52.2539C70.127 53.3477 70.0049 53.9385 70.0049 54.0264C70.0049 54.6709 70.4541 54.9932 71.3525 54.9932C71.7725 54.9932 72.4756 54.6318 73.4619 53.9092C73.2959 53.4502 73.2129 53.0107 73.2129 52.5908C73.2129 51.9756 73.3398 51.3506 73.5938 50.7158C73.8477 50.0713 74.2236 49.334 74.7217 48.5039Z" fill="#272727"/>
<path d="M77.5781 53.5137V52.5615C78.1055 51.9365 78.5059 51.4043 78.7793 50.9648C78.4668 50.8574 78.2373 50.7256 78.0908 50.5693C77.9541 50.4131 77.8857 50.1787 77.8857 49.8662C77.8857 49.5146 78.0322 49.0703 78.3252 48.5332C78.6182 47.9961 78.9795 47.4932 79.4092 47.0244C79.8389 46.5557 80.2295 46.2529 80.5811 46.1162C80.7178 46.0479 80.8496 46.0137 80.9766 46.0137C81.1719 46.0137 81.2695 46.1064 81.2695 46.292C81.2695 46.458 81.1182 46.7949 80.8154 47.3027C82.8271 46.9902 84.0967 46.834 84.624 46.834C84.8291 46.834 84.9707 46.8535 85.0488 46.8926C85.2148 46.9805 85.3516 47.1855 85.459 47.5078C85.5664 47.8301 85.6201 48.1523 85.6201 48.4746C85.6201 48.6797 85.5273 48.9043 85.3418 49.1484C85.166 49.3828 84.8584 49.7295 84.4189 50.1885C83.9014 50.7451 83.4668 51.3506 83.1152 52.0049C82.7637 52.6592 82.5879 53.1523 82.5879 53.4844C82.5879 53.9434 82.8711 54.1729 83.4375 54.1729C84.0332 54.1729 85.0684 53.5674 86.543 52.3564V53.3379C85.7324 54.1875 85.0635 54.8564 84.5361 55.3447C84.0088 55.833 83.5205 56.2236 83.0713 56.5166C82.6221 56.7998 82.2217 56.9414 81.8701 56.9414C81.46 56.9414 81.1182 56.7559 80.8447 56.3848C80.5713 56.0039 80.4346 55.457 80.4346 54.7441C80.4346 54.3242 80.542 53.8457 80.7568 53.3086C80.9717 52.7715 81.2842 52.1904 81.6943 51.5654C82.1143 50.9307 82.583 50.3008 83.1006 49.6758C82.8271 49.7344 82.5195 49.7979 82.1777 49.8662C81.8359 49.9248 81.4746 49.9883 81.0938 50.0566C80.7129 50.125 80.4199 50.1787 80.2148 50.2178C79.6094 51.4287 78.7305 52.5273 77.5781 53.5137Z" fill="#272727"/>
<path d="M88.8281 52.9131V53.2793C88.8281 53.8555 88.9697 54.3047 89.2529 54.627C89.5361 54.9492 89.9072 55.1104 90.3662 55.1104C90.8447 55.1104 91.3379 54.998 91.8457 54.7734C92.3633 54.5488 92.876 54.251 93.3838 53.8799C93.8916 53.5088 94.5117 53.0107 95.2441 52.3857V53.2793C94.1406 54.6074 93.1055 55.6279 92.1387 56.3408C91.1719 57.0439 90.1904 57.3955 89.1943 57.3955C88.3252 57.3955 87.6367 57.0586 87.1289 56.3848C86.6211 55.7109 86.3672 54.7881 86.3672 53.6162C86.3672 52.5908 86.6064 51.6631 87.085 50.833C87.5635 49.9932 88.3447 49.1094 89.4287 48.1816C90.1709 47.5469 90.9082 47.0684 91.6406 46.7461C92.373 46.4238 93.0273 46.2627 93.6035 46.2627C94.0625 46.2627 94.4238 46.3701 94.6875 46.585C94.9609 46.79 95.0977 47.1025 95.0977 47.5225C95.0977 48.1377 94.8682 48.7529 94.4092 49.3682C93.9502 49.9736 93.2471 50.5791 92.2998 51.1846C91.3623 51.7803 90.2051 52.3564 88.8281 52.9131ZM88.9746 51.9609C89.8535 51.6191 90.6055 51.1943 91.2305 50.6865C91.8555 50.1787 92.3145 49.6953 92.6074 49.2363C92.9102 48.7676 93.0615 48.4258 93.0615 48.2109C93.0615 47.9863 92.959 47.874 92.7539 47.874C92.5781 47.874 92.29 47.9863 91.8896 48.2109C91.499 48.4355 91.0986 48.7285 90.6885 49.0898C90.2881 49.4512 89.9268 49.876 89.6045 50.3643C89.2822 50.8525 89.0723 51.3848 88.9746 51.9609Z" fill="#272727"/>
<path d="M105 44.124C105 44.1924 105.063 44.2266 105.19 44.2266C105.278 44.2266 105.674 44.168 106.377 44.0508C107.09 43.9336 107.734 43.8701 108.311 43.8604C107.666 44.0361 107.109 44.2168 106.641 44.4023C106.182 44.5781 105.703 44.7783 105.205 45.0029C104.717 45.2178 104.365 45.3643 104.15 45.4424C103.936 45.5107 103.75 45.5449 103.594 45.5449C103.096 45.5449 102.847 45.2227 102.847 44.5781C102.847 42.918 103.267 41.751 104.106 41.0771C104.448 40.8037 104.995 40.4814 105.747 40.1104C106.509 39.7295 107.363 39.373 108.311 39.041C109.268 38.6992 110.317 38.4062 111.46 38.1621C112.603 37.918 113.73 37.7959 114.844 37.7959C115.986 37.7959 117.036 37.9619 117.993 38.2939C118.95 38.626 119.751 39.0947 120.396 39.7002C121.04 40.2959 121.533 41.0283 121.875 41.8975C122.227 42.7666 122.402 43.7432 122.402 44.8271C122.402 46.4775 121.924 48.0791 120.967 49.6318C120.02 51.1846 118.75 52.5566 117.158 53.748C115.576 54.9297 113.789 55.8672 111.797 56.5605C109.805 57.2539 107.842 57.6006 105.908 57.6006C105.547 57.6006 105.259 57.5615 105.044 57.4834C104.839 57.4053 104.692 57.249 104.604 57.0146C104.517 56.79 104.473 56.4531 104.473 56.0039C104.473 55.4473 104.517 54.9932 104.604 54.6416C104.692 54.29 104.839 53.8848 105.044 53.4258C106.45 50.3105 108.896 46.3896 112.383 41.6631C111.68 41.7412 110.908 41.8926 110.068 42.1172C109.229 42.332 108.433 42.5713 107.681 42.835C106.929 43.0986 106.294 43.3525 105.776 43.5967C105.259 43.8408 105 44.0166 105 44.124ZM112.808 41.5752C112.808 41.5947 112.827 41.707 112.866 41.9121C112.905 42.1074 112.925 42.2783 112.925 42.4248C112.925 42.6494 112.808 42.9668 112.573 43.377C112.349 43.7773 111.899 44.4951 111.226 45.5303C110.552 46.5654 109.976 47.4736 109.497 48.2549C109.019 49.0361 108.452 50.042 107.798 51.2725C107.593 51.6631 107.451 51.9268 107.373 52.0635C107.295 52.2002 107.168 52.4248 106.992 52.7373C106.826 53.0498 106.704 53.3184 106.626 53.543C106.548 53.7676 106.509 53.9385 106.509 54.0557C106.509 54.3096 106.646 54.4902 106.919 54.5977C107.202 54.6953 107.603 54.7441 108.12 54.7441C109.448 54.7441 110.854 54.5049 112.339 54.0264C113.823 53.5381 115.215 52.8643 116.514 52.0049C117.822 51.1455 118.867 50.1738 119.648 49.0898C120.43 48.0059 120.82 46.873 120.82 45.6914C120.82 44.3438 120.327 43.3086 119.341 42.5859C118.354 41.8535 116.919 41.4873 115.034 41.4873C114.243 41.4873 113.501 41.5166 112.808 41.5752Z" fill="#272727"/>
<path d="M125.42 52.9131V53.2793C125.42 53.8555 125.562 54.3047 125.845 54.627C126.128 54.9492 126.499 55.1104 126.958 55.1104C127.437 55.1104 127.93 54.998 128.438 54.7734C128.955 54.5488 129.468 54.251 129.976 53.8799C130.483 53.5088 131.104 53.0107 131.836 52.3857V53.2793C130.732 54.6074 129.697 55.6279 128.73 56.3408C127.764 57.0439 126.782 57.3955 125.786 57.3955C124.917 57.3955 124.229 57.0586 123.721 56.3848C123.213 55.7109 122.959 54.7881 122.959 53.6162C122.959 52.5908 123.198 51.6631 123.677 50.833C124.155 49.9932 124.937 49.1094 126.021 48.1816C126.763 47.5469 127.5 47.0684 128.232 46.7461C128.965 46.4238 129.619 46.2627 130.195 46.2627C130.654 46.2627 131.016 46.3701 131.279 46.585C131.553 46.79 131.689 47.1025 131.689 47.5225C131.689 48.1377 131.46 48.7529 131.001 49.3682C130.542 49.9736 129.839 50.5791 128.892 51.1846C127.954 51.7803 126.797 52.3564 125.42 52.9131ZM125.566 51.9609C126.445 51.6191 127.197 51.1943 127.822 50.6865C128.447 50.1787 128.906 49.6953 129.199 49.2363C129.502 48.7676 129.653 48.4258 129.653 48.2109C129.653 47.9863 129.551 47.874 129.346 47.874C129.17 47.874 128.882 47.9863 128.481 48.2109C128.091 48.4355 127.69 48.7285 127.28 49.0898C126.88 49.4512 126.519 49.876 126.196 50.3643C125.874 50.8525 125.664 51.3848 125.566 51.9609Z" fill="#272727"/>
<path d="M136.978 44.7832H137.607C138.125 43.8555 138.594 43.2012 139.014 42.8203C139.434 42.4297 139.912 42.2344 140.449 42.2344C140.986 42.2344 141.255 42.3564 141.255 42.6006C141.255 42.7178 141.045 43.0352 140.625 43.5527C140.205 44.0703 139.888 44.5049 139.673 44.8564C140.005 44.8955 140.298 44.9297 140.552 44.959C140.815 44.9883 141.021 45.0127 141.167 45.0322C140.61 46.0674 139.912 47.127 139.072 48.2109C138.799 48.1914 138.569 48.1768 138.384 48.167C138.198 48.1475 138.008 48.1328 137.812 48.123C137.627 48.1035 137.397 48.084 137.124 48.0645C136.597 48.9141 136.152 49.6758 135.791 50.3496C135.439 51.0137 135.166 51.624 134.971 52.1807C134.785 52.7373 134.692 53.2646 134.692 53.7627C134.692 54.4365 134.961 54.7734 135.498 54.7734C135.869 54.7734 136.353 54.5781 136.948 54.1875C137.554 53.7871 138.359 53.1768 139.365 52.3564V53.3379C136.729 56.1992 134.78 57.6299 133.521 57.6299C133.081 57.6299 132.725 57.459 132.451 57.1172C132.188 56.7754 132.056 56.3359 132.056 55.7988C132.056 55.4375 132.129 55.0078 132.275 54.5098C132.432 54.0117 132.705 53.2598 133.096 52.2539C132.959 52.3711 132.827 52.4883 132.7 52.6055C132.583 52.7129 132.471 52.8154 132.363 52.9131C132.266 53.001 132.158 53.0986 132.041 53.2061C131.924 53.3037 131.807 53.4062 131.689 53.5137V52.5029C132.715 51.6436 133.955 50.1348 135.41 47.9766C135.264 47.9668 135.127 47.9619 135 47.9619C134.873 47.9521 134.722 47.9473 134.546 47.9473C133.97 47.9473 133.54 47.9863 133.257 48.0645C133.14 48.0938 133.027 48.1279 132.92 48.167C132.822 48.1963 132.754 48.2109 132.715 48.2109C132.676 48.2109 132.656 48.1816 132.656 48.123C132.656 47.8008 132.856 47.3174 133.257 46.6729C133.579 46.126 133.882 45.7207 134.165 45.457C134.458 45.1934 134.81 45.0176 135.22 44.9297C135.64 44.832 136.226 44.7832 136.978 44.7832Z" fill="#272727"/>
<path d="M141.05 49.7637C142.534 48.416 143.975 47.415 145.371 46.7607C146.768 46.1064 147.847 45.7793 148.608 45.7793C148.813 45.7793 149.004 45.8672 149.18 46.043C149.355 46.209 149.492 46.4043 149.59 46.6289C149.697 46.8535 149.751 47.0195 149.751 47.127C149.751 47.3027 149.683 47.4346 149.546 47.5225C149.409 47.6006 149.17 47.6982 148.828 47.8154C148.896 47.9717 148.984 48.1719 149.092 48.416C149.199 48.6602 149.282 48.8604 149.341 49.0166C149.399 49.1631 149.429 49.2949 149.429 49.4121C149.429 49.6465 149.189 50.0859 148.711 50.7305C148.242 51.3652 147.91 51.834 147.715 52.1367C147.529 52.4395 147.437 52.8105 147.437 53.25C147.437 53.9727 147.769 54.334 148.433 54.334C149.116 54.334 150.186 53.6943 151.641 52.415V53.3086C149.17 56.0527 147.402 57.4248 146.338 57.4248C145.957 57.4248 145.684 57.2979 145.518 57.0439C145.361 56.7998 145.283 56.4336 145.283 55.9453C145.283 55.1738 145.562 54.0557 146.118 52.5908C144.692 54.1729 143.633 55.3008 142.939 55.9746C142.246 56.6387 141.675 56.9707 141.226 56.9707C141.011 56.9707 140.742 56.7852 140.42 56.4141C140.098 56.043 139.81 55.5645 139.556 54.9785C139.312 54.3828 139.189 53.7676 139.189 53.1328C139.189 52.6738 139.233 52.293 139.321 51.9902C139.409 51.6777 139.58 51.3604 139.834 51.0381C140.088 50.7158 140.493 50.291 141.05 49.7637ZM148.066 48.1523C145.527 49.3145 143.716 50.3008 142.632 51.1113C141.558 51.9219 141.021 52.7568 141.021 53.6162C141.021 53.9287 141.074 54.1875 141.182 54.3926C141.289 54.5879 141.436 54.6855 141.621 54.6855C141.729 54.6855 141.919 54.6172 142.192 54.4805C143.218 53.875 144.155 53.0889 145.005 52.1221C145.854 51.1455 146.875 49.8223 148.066 48.1523Z" fill="#272727"/>
<path d="M157.529 45.8379C157.285 45.8379 157.051 45.7451 156.826 45.5596C156.611 45.374 156.504 45.1396 156.504 44.8564C156.504 44.4268 156.709 43.9482 157.119 43.4209C157.529 42.8936 157.954 42.6299 158.394 42.6299C158.687 42.6299 158.931 42.7227 159.126 42.9082C159.321 43.084 159.419 43.3428 159.419 43.6846C159.419 44.1045 159.219 44.5684 158.818 45.0762C158.418 45.584 157.988 45.8379 157.529 45.8379ZM158.525 52.3857V53.4551C157.578 54.6758 156.694 55.5986 155.874 56.2236C155.054 56.8389 154.355 57.1465 153.779 57.1465C152.979 57.1465 152.383 56.7266 151.992 55.8867C151.602 55.0469 151.406 54.1289 151.406 53.1328C151.406 52.752 151.445 52.3906 151.523 52.0488C151.602 51.6973 151.694 51.4092 151.802 51.1846C151.909 50.96 152.109 50.6084 152.402 50.1299C153.789 47.9717 155.059 46.8926 156.211 46.8926C156.807 46.8926 157.104 47.1221 157.104 47.5811C157.104 47.8936 156.909 48.3818 156.519 49.0459C156.138 49.71 155.796 50.1836 155.493 50.4668C154.644 51.2871 154.087 51.8584 153.823 52.1807C153.569 52.5029 153.442 52.8691 153.442 53.2793C153.442 53.6309 153.574 53.9238 153.838 54.1582C154.102 54.3926 154.443 54.5098 154.863 54.5098C155.322 54.5098 155.825 54.3438 156.372 54.0117C156.929 53.6699 157.646 53.1279 158.525 52.3857Z" fill="#272727"/>
<path d="M165.41 52.2246V53.3086C163.369 56.0137 161.709 57.3662 160.43 57.3662C159.736 57.3662 159.189 56.9902 158.789 56.2383C158.398 55.4766 158.203 54.4805 158.203 53.25C158.203 52.2539 158.438 51.0723 158.906 49.7051C159.375 48.3281 160 46.9365 160.781 45.5303C161.572 44.1143 162.388 42.8838 163.228 41.8389C164.077 40.7842 164.863 40.0469 165.586 39.627C165.879 39.4512 166.108 39.3633 166.274 39.3633C166.479 39.3633 166.616 39.4561 166.685 39.6416C166.753 39.8174 166.787 40.125 166.787 40.5645C166.787 41.9219 166.235 43.5918 165.132 45.5742C164.028 47.5469 162.49 49.5635 160.518 51.624C160.42 52.1318 160.371 52.5225 160.371 52.7959C160.371 53.4209 160.503 53.9287 160.767 54.3193C161.04 54.71 161.416 54.9053 161.895 54.9053C162.139 54.9053 162.402 54.8125 162.686 54.627C162.969 54.4316 163.267 54.1924 163.579 53.9092C163.892 53.626 164.502 53.0645 165.41 52.2246ZM161.03 49.5879C161.538 49.0898 162.026 48.5234 162.495 47.8887C162.974 47.2539 163.423 46.5752 163.843 45.8525C164.263 45.1299 164.59 44.4805 164.824 43.9043C165.068 43.3281 165.19 42.8936 165.19 42.6006C165.19 42.376 165.112 42.2637 164.956 42.2637C164.897 42.2637 164.785 42.3174 164.619 42.4248C164.023 42.9131 163.354 43.8701 162.612 45.2959C161.87 46.7119 161.343 48.1426 161.03 49.5879Z" fill="#272727"/>
<path d="M165.234 52.7959V52.4443C167.754 49.7881 169.487 47.9277 170.435 46.8633C170.649 45.6621 171.167 45.0615 171.987 45.0615C172.192 45.0615 172.412 45.1201 172.646 45.2373L172.734 45.5156C172.695 45.6328 172.676 45.7988 172.676 46.0137C172.676 46.1992 172.744 46.5459 172.881 47.0537C173.027 47.5518 173.14 47.9717 173.218 48.3135C173.296 48.6553 173.335 49.041 173.335 49.4707C173.335 50.1152 173.188 50.7354 172.896 51.3311C172.603 51.917 172.178 52.4834 171.621 53.0303C171.064 53.5674 170.347 54.1191 169.468 54.6855C169.819 54.7441 170.098 54.7734 170.303 54.7734C170.703 54.7734 171.133 54.6758 171.592 54.4805C172.061 54.2754 172.534 54.0068 173.013 53.6748C173.501 53.333 174.067 52.8936 174.712 52.3564V53.3379C173.462 54.5586 172.344 55.4863 171.357 56.1211C170.371 56.7461 169.521 57.0586 168.809 57.0586C167.891 57.0586 167.041 56.668 166.26 55.8867C165.801 55.418 165.513 54.9688 165.396 54.5391C165.288 54.1094 165.234 53.5283 165.234 52.7959ZM170.698 50.5547L170.435 48.416C169.829 49.0996 168.535 50.4131 166.553 52.3564C167.139 52.4834 167.539 52.6543 167.754 52.8691C167.969 53.084 168.271 53.499 168.662 54.1143C169.326 53.8408 169.834 53.4697 170.186 53.001C170.547 52.5225 170.728 51.873 170.728 51.0527C170.728 50.9551 170.723 50.8672 170.713 50.7891C170.713 50.7109 170.708 50.6328 170.698 50.5547Z" fill="#272727"/>
</g>
</svg>
