<svg width="207" height="16" viewBox="0 0 207 16" fill="none" xmlns="http://www.w3.org/2000/svg">
<path id="Vector" d="M4.49931 8.03255C6.14284 8.04951 7.77865 7.94773 9.42217 7.88835C10.0858 7.86291 10.7571 7.82898 11.4206 7.78657C14.3605 7.62541 17.3003 7.46425 20.2401 7.30309C23.7509 7.108 27.2695 6.90443 30.7803 6.69238C35.8034 6.38702 40.8189 6.07318 45.8343 5.76783C46.984 5.69997 48.1337 5.64908 49.2834 5.5897C52.2078 5.43703 55.1322 5.28435 58.0566 5.14015C60.981 4.98747 63.9054 4.8348 66.8298 4.6906C67.9718 4.63123 69.1215 4.55489 70.2634 4.51248C74.9317 4.35132 79.5999 4.19016 84.2604 4.029C87.1308 3.92721 90.0012 3.83391 92.8715 3.73212C93.9981 3.68971 95.1169 3.63882 96.2435 3.61337C100.757 3.54552 105.264 3.4607 109.777 3.39284C114.23 3.3165 118.682 3.24864 123.134 3.1723C124.307 3.15534 125.487 3.16382 126.66 3.15534C129.569 3.14686 132.47 3.12989 135.379 3.12141C139.901 3.10445 144.415 3.08748 148.937 3.06204C150.41 3.06204 151.892 3.07052 153.373 3.079C156.467 3.08748 159.562 3.10445 162.656 3.11293C162.91 3.11293 163.165 3.11293 163.42 3.11293C156.452 3.21472 149.492 3.3165 142.524 3.43525C139.616 3.48614 136.707 3.52855 133.798 3.57945C132.54 3.59641 131.29 3.60489 130.032 3.63882C125.827 3.75757 121.614 3.89328 117.409 4.01203C112.548 4.15623 107.679 4.30042 102.818 4.44462C102 4.47007 101.182 4.52096 100.364 4.56337C97.7712 4.69908 95.1864 4.82631 92.5938 4.95355C87.3391 5.21649 82.0845 5.48792 76.8298 5.75086C76.0505 5.79327 75.2789 5.85265 74.4996 5.91202C71.9378 6.10711 69.3684 6.3022 66.7989 6.49729C62.2001 6.84505 57.6091 7.19282 53.0103 7.54059C51.7448 7.63389 50.4794 7.77808 49.214 7.88835C46.2741 8.15978 43.3266 8.43121 40.3868 8.70263C36.6445 9.0504 32.9022 9.3812 29.1676 9.74593C23.9593 10.2464 18.7586 10.7468 13.5503 11.2473C12.3003 11.366 11.0503 11.4848 9.80797 11.6035C7.57031 11.8156 5.34037 12.1294 3.1027 12.4008C2.86351 12.4263 2.66289 12.5959 2.66289 12.8843C2.66289 13.1727 2.86351 13.3508 3.1027 13.3678C3.92061 13.4102 4.73851 13.4441 5.5487 13.4865C5.44839 13.724 5.38666 13.9785 5.38666 14.233C5.38666 15.149 6.11197 16.0566 6.98389 15.9972C13.3651 15.5562 19.7463 15.0812 26.1352 14.7504C31.683 14.462 37.2232 14.1736 42.771 13.8767C48.9053 13.5544 55.0319 13.2321 61.1662 12.9098C63.0952 12.808 65.0242 12.7062 66.9532 12.6044C67.5088 12.579 68.0643 12.5365 68.6276 12.5196C78.5042 12.2312 88.3808 11.9513 98.2574 11.6629C103.535 11.5102 108.813 11.3575 114.091 11.2049C115.997 11.154 117.902 11.1031 119.808 11.0691C129.909 10.8995 140.009 10.7214 150.117 10.5517C154.446 10.4754 158.775 10.3991 163.103 10.3227C166.799 10.2549 170.495 10.2294 174.191 10.0767C177.239 9.9495 180.295 9.82227 183.35 9.69504C184.87 9.63566 186.398 9.59325 187.918 9.48299C191.383 9.24549 194.847 8.99951 198.312 8.74504C198.312 8.74504 198.312 8.75353 198.304 8.76201C198.111 9.12674 198.057 9.57629 198.157 9.98343C198.258 10.3821 198.497 10.7214 198.821 10.9334C199.122 11.1285 199.593 11.2388 199.932 11.0946C200.688 10.7638 201.437 10.4245 202.185 10.0852C202.17 10.0852 202.154 10.1022 202.139 10.1107L202.309 10.0343C202.37 10.0089 202.44 9.97495 202.502 9.9495C202.478 9.95798 202.455 9.97495 202.432 9.98343C202.833 9.79682 203.235 9.61022 203.628 9.42361C204.045 9.22852 204.461 9.04192 204.878 8.83835C205.333 8.61781 205.765 8.35487 206.205 8.1004C206.699 7.81201 207 7.17586 207 6.57363C207 6.25131 206.923 5.95443 206.784 5.68301C206.591 5.31828 206.213 4.94506 205.827 4.86872C205.441 4.79239 205.056 4.74149 204.662 4.68212C204.577 4.67364 204.492 4.66515 204.4 4.66515C204.137 4.66515 203.86 4.70756 203.613 4.72453C203.026 4.76694 202.44 4.86872 201.853 4.91114C201.375 4.95355 200.897 4.98747 200.41 5.0214C199.114 5.12319 197.826 5.22497 196.537 5.32676C196.205 5.3522 195.866 5.37765 195.534 5.4031C195.657 5.25042 195.742 5.08078 195.796 4.87721C195.858 4.72453 195.889 4.55489 195.897 4.38525C195.912 4.2665 195.927 4.14775 195.943 4.02051C195.943 3.85935 195.92 3.71516 195.873 3.57096C195.904 3.554 195.943 3.53704 195.974 3.52007C196.213 3.35891 196.414 3.14686 196.552 2.88391C196.699 2.604 196.776 2.30713 196.776 1.98481C196.776 1.66249 196.699 1.36562 196.552 1.08571C196.468 0.966959 196.383 0.84821 196.298 0.720978C196.097 0.500444 195.858 0.347766 195.58 0.262945C195.079 0.0508926 194.562 0 194.029 0C193.597 0 193.165 0.0339284 192.733 0.0424105C192.116 0.0424105 191.491 0.0593747 190.873 0.0593747C189.994 0.0678568 189.114 0.084821 188.235 0.084821C185.912 0.101785 183.589 0.110267 181.267 0.127231C179.083 0.144196 176.9 0.135714 174.716 0.135714C172.733 0.135714 170.742 0.135714 168.759 0.135714C160.842 0.178124 152.933 0.186606 145.017 0.279909C139.083 0.347766 133.149 0.415623 127.216 0.474998C124.561 0.508926 121.915 0.551336 119.261 0.610711C113.311 0.746425 107.37 0.89062 101.421 1.02633C99.7234 1.06874 98.0259 1.10267 96.336 1.14508C95.3561 1.17053 94.3684 1.22142 93.3885 1.26383C87.5089 1.50981 81.6369 1.75579 75.7573 2.00178C73.9671 2.07811 72.1693 2.15445 70.3792 2.23079C69.3761 2.2732 68.3653 2.34954 67.3622 2.40043C61.5288 2.7482 55.6878 3.08748 49.8544 3.43525C46.8374 3.61337 43.8282 3.80846 40.8189 4.02051C35.6645 4.37676 30.5025 4.74149 25.3481 5.09774C20.8805 5.4031 16.4129 5.67452 11.9453 5.96292C11.2354 6.00533 10.5256 6.05622 9.82341 6.09863C8.68143 6.17497 7.53173 6.22586 6.38975 6.27675C5.37123 6.32765 4.35271 6.36157 3.33419 6.32765C3.23388 6.03925 2.97153 5.80176 2.67832 5.8272C2.02245 5.88658 1.36659 5.96292 0.71072 6.03925C0.394361 6.07318 0.116583 6.25131 0.0239896 6.60755C-0.0763194 7.00621 0.147447 7.47273 0.517818 7.56603C0.803313 7.64237 1.08881 7.71871 1.3743 7.79505C1.65208 7.86291 1.95301 7.88835 2.23079 7.9138C2.97925 7.99014 3.73542 8.0071 4.4916 8.0071L4.49931 8.03255ZM185.063 5.30979C186.02 5.30979 186.985 5.30979 187.941 5.30979C188.026 5.54729 188.157 5.75934 188.327 5.92899C187.957 5.95443 187.586 5.97988 187.216 5.99684C186.514 6.02229 185.819 6.05622 185.117 6.08166C182.062 6.2089 179.014 6.33613 175.958 6.46336C174.562 6.52273 173.165 6.60755 171.768 6.633C169.585 6.66693 167.401 6.70934 165.217 6.74327C160.225 6.82809 155.241 6.91291 150.248 7.00621C140.565 7.17586 130.873 7.3455 121.19 7.51514C114.253 7.63389 107.316 7.87139 100.387 8.07496C89.9394 8.38031 79.4919 8.68567 69.0443 8.99102C66.9532 9.0504 64.8545 9.20308 62.7634 9.31334C56.8297 9.62718 50.9038 9.94102 44.9701 10.2549C39.1445 10.5602 33.3266 10.8656 27.5009 11.1709C26.9608 11.1964 26.4207 11.2303 25.8806 11.2557C27.4469 11.12 29.021 10.9758 30.5874 10.8486C36.0658 10.3906 41.5442 9.92406 47.0303 9.46602C48.9439 9.30486 50.8575 9.1437 52.7711 8.98254C53.7587 8.89772 54.7464 8.84683 55.7341 8.77897C61.4362 8.39728 67.1307 8.02407 72.8329 7.64237C73.944 7.56603 75.0628 7.47273 76.1739 7.42184C77.7789 7.35398 79.3838 7.28612 80.9888 7.21827C86.8607 6.9638 92.7404 6.71782 98.6123 6.46336C99.9086 6.41247 101.197 6.35309 102.493 6.29372C102.833 6.27675 103.172 6.27675 103.512 6.26827C104.422 6.25131 105.325 6.22586 106.236 6.2089C112.123 6.07318 118.011 5.94595 123.898 5.81024C126.614 5.75086 129.322 5.67452 132.038 5.65756C140.796 5.58122 149.546 5.47944 158.304 5.43703C167.224 5.39461 176.143 5.32676 185.063 5.31828V5.30979Z" fill="#F08178"/>
</svg>
