<svg width="120" height="11" viewBox="0 0 120 11" fill="none" xmlns="http://www.w3.org/2000/svg">
<path d="M2.6083 4.25103C3.56107 4.26 4.50936 4.20614 5.46213 4.17471C5.84681 4.16125 6.23597 4.14329 6.62066 4.12085C8.3249 4.03556 10.0291 3.95027 11.7334 3.86498C13.7687 3.76173 15.8084 3.654 17.8436 3.54177C20.7556 3.38017 23.6631 3.21408 26.5706 3.05248C27.2371 3.01657 27.9036 2.98963 28.5701 2.95821C30.2654 2.87741 31.9607 2.79661 33.656 2.7203C35.3513 2.6395 37.0466 2.5587 38.7419 2.48238C39.4039 2.45096 40.0704 2.41056 40.7324 2.38812C43.4386 2.30283 46.1449 2.21754 48.8466 2.13225C50.5106 2.07838 52.1746 2.029 53.8386 1.97513C54.4916 1.95269 55.1402 1.92576 55.7933 1.91229C58.4101 1.87638 61.0223 1.83149 63.6391 1.79558C66.2201 1.75518 68.801 1.71926 71.382 1.67886C72.0619 1.66989 72.7463 1.67437 73.4262 1.66989C75.1126 1.6654 76.7945 1.65642 78.4808 1.65193C81.102 1.64295 83.7188 1.63397 86.34 1.62051C87.1944 1.62051 88.0532 1.625 88.912 1.62949C90.7057 1.63397 92.4995 1.64295 94.2932 1.64744C94.4408 1.64744 94.5884 1.64744 94.736 1.64744C90.6968 1.70131 86.6621 1.75518 82.6229 1.81802C80.9365 1.84495 79.2502 1.8674 77.5638 1.89433C76.8347 1.90331 76.1101 1.9078 75.381 1.92576C72.9431 1.9886 70.5008 2.06042 68.063 2.12327C65.2449 2.19958 62.4224 2.27589 59.6044 2.3522C59.1302 2.36567 58.6561 2.39261 58.1819 2.41505C56.679 2.48687 55.1805 2.55421 53.6775 2.62154C50.6314 2.7607 47.5852 2.90434 44.539 3.0435C44.0872 3.06595 43.6399 3.09737 43.1881 3.12879C41.7031 3.23204 40.2135 3.33528 38.724 3.43853C36.058 3.62257 33.3966 3.80662 30.7306 3.99067C29.997 4.04005 29.2634 4.11636 28.5298 4.17471C26.8256 4.31836 25.1169 4.46201 23.4126 4.60565C21.2432 4.7897 19.0737 4.96477 16.9088 5.15779C13.8894 5.42264 10.8746 5.68749 7.85523 5.95233C7.13059 6.01518 6.40595 6.07802 5.68578 6.14087C4.38859 6.25309 3.09586 6.41918 1.79867 6.56283C1.66 6.5763 1.5437 6.66608 1.5437 6.8187C1.5437 6.97132 1.66 7.06559 1.79867 7.07457C2.27282 7.09701 2.74696 7.11497 3.21664 7.13741C3.15849 7.26311 3.1227 7.39777 3.1227 7.53244C3.1227 8.01725 3.54317 8.49756 4.04863 8.46614C7.74787 8.23272 11.4471 7.98134 15.1508 7.80627C18.367 7.65364 21.5787 7.50102 24.7948 7.34391C28.3509 7.17333 31.9025 7.00275 35.4587 6.83217C36.5769 6.7783 37.6952 6.72443 38.8135 6.67057C39.1355 6.6571 39.4576 6.63465 39.7841 6.62568C45.5097 6.47305 51.2352 6.32492 56.9608 6.17229C60.0204 6.09149 63.08 6.01069 66.1396 5.92989C67.2444 5.90296 68.3493 5.87602 69.4541 5.85807C75.3094 5.76829 81.1647 5.67402 87.0244 5.58424C89.5338 5.54384 92.0432 5.50344 94.5526 5.46304C96.6952 5.42713 98.8378 5.41366 100.98 5.33286C102.747 5.26553 104.519 5.19819 106.29 5.13086C107.171 5.09944 108.057 5.07699 108.938 5.01863C110.946 4.89294 112.955 4.76277 114.963 4.6281C114.963 4.6281 114.963 4.63259 114.959 4.63708C114.847 4.8301 114.816 5.06801 114.874 5.28348C114.932 5.49446 115.071 5.67402 115.259 5.78624C115.433 5.88949 115.706 5.94785 115.903 5.87153C116.341 5.69647 116.775 5.51691 117.209 5.33735C117.2 5.33735 117.191 5.34633 117.182 5.35082L117.28 5.31042C117.316 5.29695 117.356 5.27899 117.392 5.26553C117.379 5.27002 117.365 5.27899 117.352 5.28348C117.585 5.18473 117.817 5.08597 118.045 4.98721C118.287 4.88397 118.528 4.78521 118.77 4.67748C119.034 4.56076 119.284 4.42161 119.539 4.28694C119.826 4.13431 120 3.79764 120 3.47893C120 3.30835 119.955 3.15124 119.875 3.00759C119.763 2.81457 119.544 2.61705 119.32 2.57665C119.096 2.53625 118.873 2.50932 118.645 2.47789C118.595 2.47341 118.546 2.46892 118.493 2.46892C118.34 2.46892 118.179 2.49136 118.036 2.50034C117.696 2.52278 117.356 2.57665 117.016 2.5991C116.739 2.62154 116.462 2.6395 116.18 2.65745C115.428 2.71132 114.681 2.76519 113.934 2.81905C113.742 2.83252 113.545 2.84599 113.353 2.85945C113.425 2.77865 113.474 2.68888 113.505 2.58114C113.541 2.50034 113.559 2.41056 113.563 2.32078C113.572 2.25794 113.581 2.19509 113.59 2.12776C113.59 2.04247 113.577 1.96616 113.55 1.88984C113.568 1.88087 113.59 1.87189 113.608 1.86291C113.747 1.77762 113.863 1.6654 113.943 1.52624C114.028 1.3781 114.073 1.22099 114.073 1.05041C114.073 0.879832 114.028 0.722719 113.943 0.574584C113.894 0.511739 113.845 0.448894 113.796 0.38156C113.68 0.264847 113.541 0.184047 113.38 0.139157C113.089 0.0269336 112.789 0 112.481 0C112.23 0 111.98 0.0179558 111.729 0.0224447C111.371 0.0224447 111.009 0.0314226 110.651 0.0314226C110.141 0.0359115 109.631 0.0448894 109.121 0.0448894C107.775 0.0538673 106.429 0.0583562 105.082 0.0673341C103.816 0.076312 102.55 0.071823 101.285 0.071823C100.135 0.071823 98.981 0.071823 97.8314 0.071823C93.242 0.0942677 88.6571 0.0987567 84.0677 0.148135C80.6279 0.184047 77.1881 0.219958 73.7483 0.251381C72.2095 0.269336 70.6753 0.291781 69.1365 0.323204C65.6878 0.395027 62.2435 0.471339 58.7947 0.543162C57.8107 0.565606 56.8266 0.583562 55.847 0.606007C55.2789 0.619474 54.7063 0.646407 54.1383 0.668852C50.7298 0.799031 47.3258 0.929211 43.9173 1.05939C42.8795 1.09979 41.8373 1.14019 40.7995 1.18059C40.218 1.20304 39.632 1.24344 39.0505 1.27037C35.6689 1.45442 32.2828 1.63397 28.9011 1.81802C27.1521 1.91229 25.4076 2.01553 23.6631 2.12776C20.6751 2.31629 17.6826 2.50932 14.6946 2.69785C12.1047 2.85945 9.51474 3.0031 6.92483 3.15572C6.5133 3.17817 6.10178 3.2051 5.69473 3.22755C5.03271 3.26795 4.36622 3.29488 3.7042 3.32182C3.11376 3.34875 2.52331 3.3667 1.93286 3.34875C1.87471 3.19613 1.72263 3.07043 1.55265 3.0839C1.17244 3.11532 0.792224 3.15572 0.412012 3.19613C0.228615 3.21408 0.0675841 3.30835 0.013907 3.49688C-0.0442431 3.70786 0.0854764 3.95476 0.300185 4.00413C0.465689 4.04453 0.631193 4.08494 0.796697 4.12534C0.957728 4.16125 1.13218 4.17471 1.29321 4.18818C1.7271 4.22858 2.16546 4.23756 2.60382 4.23756L2.6083 4.25103ZM107.283 2.81008C107.838 2.81008 108.397 2.81008 108.951 2.81008C109.001 2.93577 109.077 3.04799 109.175 3.13777C108.96 3.15124 108.746 3.1647 108.531 3.17368C108.124 3.18715 107.721 3.2051 107.314 3.21857C105.543 3.2859 103.776 3.35324 102.005 3.42057C101.195 3.45199 100.386 3.49688 99.5759 3.51035C98.31 3.52831 97.0441 3.55075 95.7782 3.56871C92.8841 3.6136 89.9945 3.65849 87.1004 3.70786C81.4867 3.79764 75.8685 3.88742 70.2548 3.9772C66.2335 4.04005 62.2122 4.16574 58.1954 4.27347C52.1388 4.43507 46.0822 4.59667 40.0257 4.75828C38.8135 4.7897 37.5968 4.8705 36.3846 4.92886C32.9448 5.09495 29.5094 5.26104 26.0696 5.42713C22.6925 5.58873 19.3198 5.75033 15.9426 5.91193C15.6295 5.9254 15.3163 5.94336 15.0032 5.95682C15.9113 5.885 16.8238 5.80869 17.7318 5.74135C20.9077 5.49895 24.0836 5.25206 27.264 5.00966C28.3733 4.92437 29.4826 4.83908 30.5919 4.75379C31.1645 4.7089 31.737 4.68196 32.3096 4.64605C35.6152 4.44405 38.9163 4.24654 42.222 4.04453C42.8661 4.00413 43.5147 3.95476 44.1588 3.92782C45.0892 3.89191 46.0196 3.856 46.95 3.82009C50.354 3.68542 53.7625 3.55524 57.1665 3.42057C57.918 3.39364 58.665 3.36222 59.4165 3.33079C59.6133 3.32182 59.8101 3.32182 60.007 3.31733C60.5348 3.30835 61.0581 3.29488 61.586 3.2859C64.9989 3.21408 68.4119 3.14675 71.8248 3.07492C73.3994 3.0435 74.9694 3.0031 76.544 2.99412C81.6209 2.95372 86.6934 2.89986 91.7703 2.87741C96.9412 2.85497 102.112 2.81905 107.283 2.81457V2.81008Z" fill="#009FE3"/>
<path d="M9.33578 10.4053C9.47659 10.4053 9.59074 10.2907 9.59074 10.1494C9.59074 10.0081 9.47659 9.89355 9.33578 9.89355C9.19496 9.89355 9.08081 10.0081 9.08081 10.1494C9.08081 10.2907 9.19496 10.4053 9.33578 10.4053Z" fill="#009FE3"/>
</svg>
